<?xml version="1.0" encoding="utf-8"?>
<!-- Generator: Adobe Illustrator 19.0.0, SVG Export Plug-In . SVG Version: 6.00 Build 0)  -->
<svg version="1.1" id="Capa_1" xmlns="http://www.w3.org/2000/svg" xmlns:xlink="http://www.w3.org/1999/xlink" x="0px" y="0px"
	 viewBox="149.5 321.1 176 151.4" style="enable-background:new 149.5 321.1 176 151.4;" xml:space="preserve">
<style type="text/css">
	.st0{fill:#64c0db;}
</style>
<g>
	<g id="Layer_3_49_">
		<path class="st0" d="M252.3,361.8h-6.9c-0.9,0-1.6-0.7-1.6-1.6c0-0.9,0.7-1.6,1.6-1.6h6.9c0.9,0,1.6,0.7,1.6,1.6
			C253.9,361.1,253.2,361.8,252.3,361.8z"/>
		<g>
			<path class="st0" d="M272.9,385.3c-22.1,0-40.1,15.9-40.1,38c0,10.6,4.2,20.3,11.8,27.3c7.4,6.8,17.4,10.5,28.2,10.5
				s20.8-3.7,28.2-10.5c7.6-7,11.8-16.6,11.8-27.3C313,401.3,295,385.3,272.9,385.3z M272.9,440.5c-9.4,0-17.1-7.7-17.1-17.1
				s7.7-17.1,17.1-17.1S290,414,290,423.4C290,432.8,282.4,440.5,272.9,440.5z"/>
			<path class="st0" d="M190.5,406.1c-15.6,0-28.4,12.7-28.4,28.4c0,7.5,3,14.4,8.4,19.3c5.2,4.8,12.3,7.5,20,7.5s14.7-2.7,20-7.5
				c5.4-5,8.4-11.8,8.4-19.3C218.8,418.8,206.1,406.1,190.5,406.1z M190.5,446.5c-6.6,0-12-5.4-12-12s5.4-12,12-12
				c6.6,0,12,5.4,12,12S197.1,446.5,190.5,446.5z"/>
			<path class="st0" d="M241.7,393c8.2-7.7,19.3-11.9,31.2-11.9c8,0,15.6,1.9,22.3,5.5c0,0,0.1,0,0.1,0c0.6,0.4,1.4,0.7,2.2,0.6
				c1.8-0.1,3.1-1.7,2.9-3.5c0-0.4-3-34.1-3.6-40.7c-0.9-10.5-8.5-10.5-11.3-10.5h-43.8c-3.9,0-11.2,0-13.4,11.1
				c-1.3,6.2-4,19.4-6.2,29.4c-11.3,0-21.8,0-29.9,0v-16.4c0-2.4-1.9-4.3-4.3-4.3s-4.3,1.9-4.3,4.3v16.4c-4.2,0-6.8,0-7.3,0
				c-12.6,0-16.4,27-9.5,39c6-6.3,14.4-10.3,23.8-10.3c16.4,0,30,12.2,32.3,27.9h6.4c-0.3-2.1-0.5-4.2-0.5-6.4
				C228.6,411.6,233.3,400.8,241.7,393z M290.4,343.6c0.4,4.2,1.7,18.9,2.6,29.4c-5.1,0-15,0-27,0v-34h19.5
				C288.7,339.1,290,339.3,290.4,343.6z M234.7,345c1.2-5.9,3.4-5.9,7-5.9h19.1v34c-10,0-21.2,0-32,0
				C231,362.5,233.8,349.4,234.7,345z"/>
		</g>
	</g>
</g>
</svg>
