<?xml version="1.0" encoding="UTF-8" standalone="no"?>
<!-- Generator: Adobe Illustrator 19.1.0, SVG Export Plug-In . SVG Version: 6.00 Build 0)  -->

<svg
   xmlns:dc="http://purl.org/dc/elements/1.1/"
   xmlns:cc="http://creativecommons.org/ns#"
   xmlns:rdf="http://www.w3.org/1999/02/22-rdf-syntax-ns#"
   xmlns:svg="http://www.w3.org/2000/svg"
   xmlns="http://www.w3.org/2000/svg"
   xmlns:sodipodi="http://sodipodi.sourceforge.net/DTD/sodipodi-0.dtd"
   xmlns:inkscape="http://www.inkscape.org/namespaces/inkscape"
   version="1.1"
   id="Ebene_1"
   x="0px"
   y="0px"
   viewBox="0 0 251.9021 75.60495"
   xml:space="preserve"
   sodipodi:docname="bubbles3.svg"
   width="251.9021"
   height="75.60495"
   inkscape:version="0.92.0 r"><metadata
     id="metadata15"><rdf:RDF><cc:Work
         rdf:about=""><dc:format>image/svg+xml</dc:format><dc:type
           rdf:resource="http://purl.org/dc/dcmitype/StillImage" /></cc:Work></rdf:RDF></metadata><defs
     id="defs13" /><sodipodi:namedview
     pagecolor="#ffffff"
     bordercolor="#666666"
     borderopacity="1"
     objecttolerance="10"
     gridtolerance="10"
     guidetolerance="10"
     inkscape:pageopacity="0"
     inkscape:pageshadow="2"
     inkscape:window-width="751"
     inkscape:window-height="480"
     id="namedview11"
     showgrid="false"
     inkscape:zoom="0.8625"
     inkscape:cx="126.00948"
     inkscape:cy="38.20495"
     inkscape:window-x="0"
     inkscape:window-y="27"
     inkscape:window-maximized="0"
     inkscape:current-layer="Ebene_1" /><style
     type="text/css"
     id="style2">
	.st0{fill:#FFFFFF;}
</style><path
     class="st0"
     d="m 250.90948,29.6 c -2.1,-3.7 -6.6,-4.5 -10.2,-2.7 -1.3,0.6 -2.5,1.4 -3.7,2.1 -3.4,0.8 -6,3.6 -6,7.3 0,3.9 3.4,7.7 7.5,7.5 3.9,-0.2 6.5,-2.4 9.8,-4.1 3.5,-1.8 4.6,-6.7 2.6,-10.1 z"
     id="path4"
     inkscape:connector-curvature="0"
     style="fill:#ffffff" /><path
     class="st0"
     d="m 9.309475,2 c -0.8,-1.2 -2.3,-2 -3.8,-2 -1.5,0 -2.9,0.8 -3.8,2 -1.09999998,1 -1.79999998,2.6 -1.69999998,3.9 0,0 0,0 0,0 0.1,0.5 0.1,1 0.2,1.4 0.3,0.9 0.7,1.7 1.39999998,2.4 1,1 2.4,1.6 3.8,1.6 1.4,0 2.8,-0.6 3.8,-1.6 l 0.8,-1.1 c 0.5,-0.8 0.7,-1.8 0.7,-2.7 0,0 0,0 0,0 0.4,-1.3 -0.3,-2.9 -1.4,-3.9 z"
     id="path6"
     inkscape:connector-curvature="0"
     style="fill:#ffffff" /><path
     class="st0"
     d="m 187.80948,64.3 c -0.2,-1.8 -1,-3.6 -2.4,-5 -2.6,-2.6 -6.9,-3.3 -10.2,-1.3 -0.4,0.2 -0.8,0.5 -1.1,0.7 0.4,-0.3 -1.5,1 -1.9,1.5 -1.5,1.9 -1.4,1.6 -2.3,3.9 -0.3,0.8 -0.2,1.6 -0.3,2.4 0.1,0.8 0.2,1.6 0.3,2.4 0.3,1.5 1.3,2.8 2.3,3.9 1.2,1.4 2.5,1.7 4.1,2.4 1.7,0.7 3.9,0.4 5.6,-0.2 1.5,-0.4 2.7,-1.2 3.8,-2.2 1.6,-1.6 2.5,-3.8 2.5,-6.1 0,-0.8 -0.2,-1.7 -0.4,-2.4 z"
     id="path8"
     inkscape:connector-curvature="0"
     style="fill:#ffffff" /></svg>