<?xml version="1.0" encoding="utf-8"?>
<!-- Generator: Adobe Illustrator 19.1.0, SVG Export Plug-In . SVG Version: 6.00 Build 0)  -->
<svg version="1.1" id="Ebene_1" xmlns="http://www.w3.org/2000/svg" xmlns:xlink="http://www.w3.org/1999/xlink" x="0px" y="0px"
	 viewBox="311.6 221.6 200.5 48.8" style="enable-background:new 311.6 221.6 200.5 48.8;" xml:space="preserve">
<style type="text/css">
	.st0{fill:#EE705C;}
	.st1{fill:none;}
	.st2{enable-background:new    ;}
</style>
<g>
	<g>
		<path class="st0" d="M320.5,240.5v-1.9c-1.9-1.6-3.1-3.9-3.1-6.6c0-4.7,3.9-8.7,8.7-8.7c4.7,0,8.7,3.9,8.7,8.7c0,2-0.8,4.1-2,5.5
			c0.6,0,1.1,0.2,1.7,0.3c1.3-1.7,1.9-3.8,1.9-6c0-5.7-4.6-10.2-10.2-10.2s-10.2,4.6-10.2,10.2C315.8,235.4,317.7,238.6,320.5,240.5
			z"/>
		<path class="st0" d="M333.1,231.8c0-3.9-3.1-7.1-7.1-7.1s-7.1,3.1-7.1,7.1c0,1.7,0.6,3.3,1.6,4.4v-4.4c0-3,2.5-5.5,5.5-5.5
			s5.5,2.5,5.5,5.5v4.4C332.5,235.1,333.1,233.6,333.1,231.8z"/>
		<path class="st0" d="M344.9,243.6c-0.9,0-1.7,0.3-2.4,0.8l0,0c0-2.2-1.7-3.9-3.9-3.9c-0.9,0-1.9,0.3-2.7,0.9
			c-0.6-1.6-2-2.5-3.6-2.5c-0.9,0-1.7,0.3-2.4,0.8v-7.9c0-2.2-1.7-3.9-3.9-3.9s-3.9,1.7-3.9,3.9v14c-3.1-2.8-6.6-5-8.8-2.8
			c-3.1,3.1,3.5,9.3,8.5,18.6c3.6,6.5,8.7,8.8,13.7,8.8c7.4,0,13.4-6,13.4-13.4v-9.4C348.8,245.4,347.1,243.6,344.9,243.6z
			 M347.3,251v6c0,6.1-5.4,11.8-11.8,11.8c-6,0-9.4-3.3-12.3-7.9c-6.1-10.4-10.5-15.1-8.8-16.8s6,2,9.3,5.5v-17.8
			c0-1.3,1.1-2.4,2.4-2.4s2.4,1.1,2.4,2.4v16.5h1.6v-5.5c0-1.3,1.1-2.4,2.4-2.4s2.4,1.1,2.4,2.4v3.9h1.6v-2.4c0-1.3,1.1-2.4,2.4-2.4
			s2.4,1.1,2.4,2.4v3.9h1.6v-0.8c0-1.3,1.1-2.4,2.4-2.4s2.4,1.1,2.4,2.4L347.3,251L347.3,251z"/>
	</g>
</g>
<rect x="360.3" y="249.1" class="st1" width="222" height="17.1"/>
<g class="st2">
	<path class="st0" d="M370.1,261.3h-1.6l-4.2-5.5l-1.2,1.1v4.5h-1.3v-11.4h1.3v5.7l5.2-5.7h1.6l-4.6,5L370.1,261.3z"/>
	<path class="st0" d="M372.8,261.3h-1.3v-12.2h1.3V261.3z"/>
	<path class="st0" d="M375.5,250.4c0-0.3,0.1-0.5,0.2-0.7c0.1-0.1,0.3-0.2,0.5-0.2c0.2,0,0.4,0.1,0.5,0.2c0.2,0.1,0.2,0.4,0.2,0.6
		s-0.1,0.5-0.2,0.7c-0.2,0.1-0.3,0.2-0.5,0.2c-0.2,0-0.4-0.1-0.5-0.2C375.5,250.9,375.5,250.7,375.5,250.4z M376.9,261.3h-1.3v-8.6
		h1.3V261.3z"/>
	<path class="st0" d="M383,261.4c-1.2,0-2.2-0.4-2.9-1.1s-1-1.8-1-3.2c0-1.4,0.3-2.5,1-3.3c0.7-0.8,1.7-1.2,2.9-1.2
		c0.4,0,0.8,0,1.2,0.1c0.4,0.1,0.7,0.2,1,0.3l-0.4,1.1c-0.3-0.1-0.6-0.2-0.9-0.3c-0.3-0.1-0.6-0.1-0.9-0.1c-1.7,0-2.6,1.1-2.6,3.3
		c0,1.1,0.2,1.9,0.6,2.4c0.4,0.6,1.1,0.8,1.9,0.8c0.7,0,1.4-0.2,2.2-0.5v1.1C384.6,261.3,383.9,261.4,383,261.4z"/>
	<path class="st0" d="M388.5,256.9c0.2-0.3,0.6-0.7,1-1.2l2.8-2.9h1.5l-3.5,3.6l3.7,4.9h-1.6l-3-4l-1,0.8v3.2h-1.3v-12.2h1.3v6.4
		C388.5,255.9,388.5,256.3,388.5,256.9L388.5,256.9z"/>
	<path class="st0" d="M399.2,261.4c-1.3,0-2.3-0.4-3-1.2c-0.7-0.8-1.1-1.8-1.1-3.2c0-1.4,0.3-2.5,1-3.3s1.6-1.2,2.7-1.2
		c1.1,0,1.9,0.4,2.5,1.1s0.9,1.6,0.9,2.8v0.8h-5.9c0,1,0.3,1.8,0.8,2.3c0.5,0.5,1.2,0.8,2,0.8c0.9,0,1.8-0.2,2.7-0.6v1.2
		c-0.5,0.2-0.9,0.3-1.3,0.4C400.3,261.4,399.8,261.4,399.2,261.4z M398.9,253.7c-0.7,0-1.2,0.2-1.6,0.7c-0.4,0.4-0.6,1.1-0.7,1.9
		h4.5c0-0.8-0.2-1.4-0.5-1.9C400.1,253.9,399.6,253.7,398.9,253.7z"/>
	<path class="st0" d="M414,261.3l-0.3-1.2h-0.1c-0.4,0.5-0.9,0.9-1.3,1.1c-0.4,0.2-1,0.3-1.6,0.3c-0.8,0-1.5-0.2-2-0.7
		c-0.5-0.4-0.7-1.1-0.7-1.9c0-1.7,1.4-2.6,4.1-2.7l1.5,0v-0.5c0-0.7-0.1-1.2-0.4-1.5s-0.8-0.5-1.4-0.5c-0.7,0-1.5,0.2-2.4,0.7
		l-0.4-1c0.4-0.2,0.9-0.4,1.4-0.5c0.5-0.1,1-0.2,1.5-0.2c1,0,1.8,0.2,2.3,0.7s0.7,1.2,0.7,2.2v5.8H414z M411.1,260.4
		c0.8,0,1.4-0.2,1.9-0.7s0.7-1.1,0.7-1.9v-0.8l-1.3,0.1c-1,0-1.8,0.2-2.2,0.5c-0.5,0.3-0.7,0.7-0.7,1.3c0,0.5,0.1,0.8,0.4,1.1
		C410.2,260.3,410.6,260.4,411.1,260.4z"/>
	<path class="st0" d="M418.9,252.7v5.6c0,0.7,0.2,1.2,0.5,1.6c0.3,0.3,0.8,0.5,1.5,0.5c0.9,0,1.6-0.2,2-0.7s0.6-1.3,0.6-2.4v-4.5
		h1.3v8.6h-1.1l-0.2-1.1h-0.1c-0.3,0.4-0.6,0.7-1.1,1c-0.5,0.2-1,0.3-1.6,0.3c-1,0-1.8-0.2-2.3-0.7c-0.5-0.5-0.8-1.3-0.8-2.4v-5.6
		H418.9z"/>
	<path class="st0" d="M431.3,253.7h-2.2v7.6h-1.3v-7.6h-1.5v-0.6l1.5-0.5v-0.5c0-2.1,0.9-3.2,2.8-3.2c0.5,0,1,0.1,1.6,0.3l-0.3,1
		c-0.5-0.2-0.9-0.2-1.3-0.2c-0.5,0-0.9,0.2-1.1,0.5s-0.4,0.8-0.4,1.6v0.6h2.2V253.7z"/>
	<path class="st0" d="M440.7,261.4c-1.3,0-2.3-0.4-3-1.2c-0.7-0.8-1.1-1.8-1.1-3.2c0-1.4,0.3-2.5,1-3.3s1.6-1.2,2.7-1.2
		c1.1,0,1.9,0.4,2.5,1.1s0.9,1.6,0.9,2.8v0.8h-5.9c0,1,0.3,1.8,0.8,2.3c0.5,0.5,1.2,0.8,2,0.8c0.9,0,1.8-0.2,2.7-0.6v1.2
		c-0.5,0.2-0.9,0.3-1.3,0.4C441.7,261.4,441.2,261.4,440.7,261.4z M440.3,253.7c-0.7,0-1.2,0.2-1.6,0.7c-0.4,0.4-0.6,1.1-0.7,1.9
		h4.5c0-0.8-0.2-1.4-0.5-1.9C441.5,253.9,441,253.7,440.3,253.7z"/>
	<path class="st0" d="M445.9,250.4c0-0.3,0.1-0.5,0.2-0.7c0.1-0.1,0.3-0.2,0.5-0.2c0.2,0,0.4,0.1,0.5,0.2c0.2,0.1,0.2,0.4,0.2,0.6
		s-0.1,0.5-0.2,0.7c-0.2,0.1-0.3,0.2-0.5,0.2c-0.2,0-0.4-0.1-0.5-0.2C446,250.9,445.9,250.7,445.9,250.4z M447.3,261.3H446v-8.6h1.3
		V261.3z"/>
	<path class="st0" d="M455.9,261.3v-5.5c0-0.7-0.2-1.2-0.5-1.6s-0.8-0.5-1.5-0.5c-0.9,0-1.6,0.2-2,0.7s-0.6,1.3-0.6,2.4v4.5h-1.3
		v-8.6h1.1l0.2,1.2h0.1c0.3-0.4,0.6-0.7,1.1-1s1-0.3,1.6-0.3c1,0,1.8,0.2,2.3,0.7s0.8,1.3,0.8,2.4v5.6H455.9z"/>
	<path class="st0" d="M463.5,261.4c-1.3,0-2.3-0.4-3-1.2s-1.1-1.8-1.1-3.2c0-1.4,0.3-2.5,1-3.3s1.6-1.2,2.7-1.2
		c1.1,0,1.9,0.4,2.5,1.1s0.9,1.6,0.9,2.8v0.8h-5.9c0,1,0.3,1.8,0.8,2.3s1.2,0.8,2,0.8c0.9,0,1.8-0.2,2.7-0.6v1.2
		c-0.5,0.2-0.9,0.3-1.3,0.4S464.1,261.4,463.5,261.4z M463.2,253.7c-0.7,0-1.2,0.2-1.6,0.7s-0.6,1.1-0.7,1.9h4.5
		c0-0.8-0.2-1.4-0.5-1.9S463.8,253.7,463.2,253.7z"/>
	<path class="st0" d="M479.7,258.3c0,1-0.4,1.8-1.1,2.4s-1.7,0.8-3,0.8c-1.4,0-2.4-0.2-3.1-0.5v-1.3c0.5,0.2,1,0.4,1.5,0.5
		s1.1,0.2,1.6,0.2c0.9,0,1.6-0.2,2-0.5s0.7-0.8,0.7-1.4c0-0.4-0.1-0.7-0.2-1s-0.4-0.5-0.8-0.7s-0.9-0.5-1.7-0.7
		c-1.1-0.4-1.8-0.8-2.3-1.4s-0.7-1.2-0.7-2c0-0.9,0.3-1.6,1-2.1c0.7-0.5,1.5-0.8,2.6-0.8c1.1,0,2.2,0.2,3.1,0.6l-0.4,1.2
		c-0.9-0.4-1.9-0.6-2.8-0.6c-0.7,0-1.3,0.2-1.6,0.5s-0.6,0.7-0.6,1.3c0,0.4,0.1,0.7,0.2,1s0.4,0.5,0.7,0.7s0.9,0.4,1.6,0.7
		c1.2,0.4,2,0.9,2.5,1.4S479.7,257.5,479.7,258.3z"/>
	<path class="st0" d="M487.1,261.3l-0.3-1.2h-0.1c-0.4,0.5-0.9,0.9-1.3,1.1s-1,0.3-1.6,0.3c-0.8,0-1.5-0.2-2-0.7s-0.7-1.1-0.7-1.9
		c0-1.7,1.4-2.6,4.1-2.7l1.5,0v-0.5c0-0.7-0.1-1.2-0.4-1.5s-0.8-0.5-1.4-0.5c-0.7,0-1.5,0.2-2.4,0.7l-0.4-1c0.4-0.2,0.9-0.4,1.4-0.5
		s1-0.2,1.5-0.2c1,0,1.8,0.2,2.3,0.7s0.7,1.2,0.7,2.2v5.8H487.1z M484.1,260.4c0.8,0,1.4-0.2,1.9-0.7s0.7-1.1,0.7-1.9v-0.8l-1.3,0.1
		c-1,0-1.8,0.2-2.2,0.5s-0.7,0.7-0.7,1.3c0,0.5,0.1,0.8,0.4,1.1S483.6,260.4,484.1,260.4z M482.6,250.4c0-0.3,0.1-0.5,0.2-0.6
		s0.3-0.2,0.5-0.2c0.2,0,0.4,0.1,0.5,0.2s0.2,0.3,0.2,0.6c0,0.3-0.1,0.5-0.2,0.6s-0.3,0.2-0.5,0.2c-0.2,0-0.4-0.1-0.5-0.2
		S482.6,250.7,482.6,250.4z M485.6,250.4c0-0.3,0.1-0.5,0.2-0.6s0.3-0.2,0.5-0.2s0.4,0.1,0.5,0.2s0.2,0.3,0.2,0.6
		c0,0.3-0.1,0.5-0.2,0.6s-0.3,0.2-0.5,0.2s-0.4-0.1-0.5-0.2S485.6,250.7,485.6,250.4z"/>
	<path class="st0" d="M491.9,252.7v5.6c0,0.7,0.2,1.2,0.5,1.6s0.8,0.5,1.5,0.5c0.9,0,1.6-0.2,2-0.7s0.6-1.3,0.6-2.4v-4.5h1.3v8.6
		h-1.1l-0.2-1.1h-0.1c-0.3,0.4-0.6,0.7-1.1,1s-1,0.3-1.6,0.3c-1,0-1.8-0.2-2.3-0.7s-0.8-1.3-0.8-2.4v-5.6H491.9z"/>
	<path class="st0" d="M501.8,261.3h-1.3v-12.2h1.3V261.3z"/>
	<path class="st0" d="M508.2,261.4c-1.3,0-2.3-0.4-3-1.2s-1.1-1.8-1.1-3.2c0-1.4,0.3-2.5,1-3.3s1.6-1.2,2.7-1.2
		c1.1,0,1.9,0.4,2.5,1.1s0.9,1.6,0.9,2.8v0.8h-5.9c0,1,0.3,1.8,0.8,2.3s1.2,0.8,2,0.8c0.9,0,1.8-0.2,2.7-0.6v1.2
		c-0.5,0.2-0.9,0.3-1.3,0.4S508.8,261.4,508.2,261.4z M507.8,253.7c-0.7,0-1.2,0.2-1.6,0.7s-0.6,1.1-0.7,1.9h4.5
		c0-0.8-0.2-1.4-0.5-1.9S508.5,253.7,507.8,253.7z"/>
</g>
</svg>
