<?xml version="1.0" encoding="utf-8"?>
<!-- Generator: Adobe Illustrator 19.0.0, SVG Export Plug-In . SVG Version: 6.00 Build 0)  -->
<svg version="1.1" id="Layer_1" xmlns="http://www.w3.org/2000/svg" xmlns:xlink="http://www.w3.org/1999/xlink" x="0px" y="0px"
	 viewBox="107 297 145 151" style="enable-background:new 107 297 145 151;" xml:space="preserve">
<style type="text/css">
	.st0{fill:#f9846a;}
</style>
<g>
	<path class="st0" d="M193.9,328.6c-5.6,0-11,1.3-15.8,3.8c1-3.3,2.5-7.1,5.6-9.7c3.8-3.3,9.2-4.6,16.3-3.6l1-6.6
		c-9.2-1.5-16.3,0.3-21.7,5.1c-4.8,4.3-7.1,10.7-8.2,15.8c-5.4-3.1-11.5-4.6-17.8-4.6c-12.5,0-23.4,4.6-31.4,13c2,0.5,3.8,1.3,5.6,2
		c2.8-2.8,5.9-3.8,7.4-2.8c1.5,1,1.3,4.3-0.5,7.6c5.9,5.4,9.4,13.3,9.4,21.7c0,4.8-1.3,9.2-3.1,13.3c2,3.6,3.1,7.4,3.1,11.7
		c0,11-7.6,20.1-17.6,22.9c7.4,8.7,16.8,14.5,27,14.5c7.4,0,14.3,2.3,20.4-1.8c6.1,4.1,13,1.8,20.4,1.8c23.7,0,42.8-30.1,42.8-58.6
		C236.7,345.4,217.6,328.6,193.9,328.6z M226,382.4c-1.8,0-3.3-1.5-3.3-3.3c0-20.4-13.8-36.7-30.6-36.7c-1.8,0-3.3-1.5-3.3-3.3
		c0-1.8,1.5-3.3,3.3-3.3c20.4,0,37.2,19.6,37.2,43.6C229.3,380.8,227.8,382.4,226,382.4z"/>
</g>
</svg>
