<?xml version="1.0" encoding="UTF-8" standalone="no"?>
<!-- Generator: Adobe Illustrator 19.1.0, SVG Export Plug-In . SVG Version: 6.00 Build 0)  -->

<svg
   xmlns:dc="http://purl.org/dc/elements/1.1/"
   xmlns:cc="http://creativecommons.org/ns#"
   xmlns:rdf="http://www.w3.org/1999/02/22-rdf-syntax-ns#"
   xmlns:svg="http://www.w3.org/2000/svg"
   xmlns="http://www.w3.org/2000/svg"
   xmlns:sodipodi="http://sodipodi.sourceforge.net/DTD/sodipodi-0.dtd"
   xmlns:inkscape="http://www.inkscape.org/namespaces/inkscape"
   version="1.1"
   id="Ebene_1"
   x="0px"
   y="0px"
   viewBox="0 0 133.86438 125.20807"
   xml:space="preserve"
   sodipodi:docname="krebs (1).svg"
   width="133.86438"
   height="125.20807"
   inkscape:version="0.92.0 r"><metadata
     id="metadata121"><rdf:RDF><cc:Work
         rdf:about=""><dc:format>image/svg+xml</dc:format><dc:type
           rdf:resource="http://purl.org/dc/dcmitype/StillImage" /></cc:Work></rdf:RDF></metadata><defs
     id="defs119" /><sodipodi:namedview
     pagecolor="#ffffff"
     bordercolor="#666666"
     borderopacity="1"
     objecttolerance="10"
     gridtolerance="10"
     guidetolerance="10"
     inkscape:pageopacity="0"
     inkscape:pageshadow="2"
     inkscape:window-width="751"
     inkscape:window-height="480"
     id="namedview117"
     showgrid="false"
     inkscape:zoom="1.18"
     inkscape:cx="64.637834"
     inkscape:cy="63.243102"
     inkscape:window-x="0"
     inkscape:window-y="27"
     inkscape:window-maximized="0"
     inkscape:current-layer="Ebene_1" /><style
     type="text/css"
     id="style2">
	.st0{fill:#EE705C;}
	.st1{fill:#FFA48F;}
	.st2{fill:#333333;}
	.st3{fill:#F7F5F6;}
	.st4{opacity:0.2;fill:#EE705C;}
	.st5{fill:none;stroke:#523336;stroke-width:5;stroke-miterlimit:10;}
</style><g
     id="g108"
     transform="translate(-35.362166,-38.035029)"><g
       id="g10"><path
         class="st0"
         d="m 38.8,137.9 c 0.2,1 0.9,-0.8 3.2,-3.9 2.2,-3.1 3.3,-2.2 5.3,-4.6 0.2,-0.2 0.4,-0.5 0.5,-0.7 1.2,-2 -0.2,-3.5 -1.5,-3 0,0 -0.1,0 -0.1,0.1 -2.4,0.9 -8.6,6.7 -7.4,12.1 z"
         id="path4"
         inkscape:connector-curvature="0"
         style="fill:#ee705c" /><path
         class="st1"
         d="m 47.8,128.7 c 0.4,0 1,-0.1 1.6,-0.2 1.3,-0.4 2.4,-0.9 3.4,-1.5 0.4,-0.2 0.8,-0.5 1.2,-0.8 1.2,-0.8 2.4,-1.5 3.9,-1.8 0.3,-0.1 0.5,-0.1 0.7,-0.2 2.3,-0.9 2.1,-2.9 0.8,-3.4 -0.3,-0.1 -0.7,-0.2 -1.2,-0.2 -1.3,0 -3.1,0.2 -5,0.7 -0.5,0.1 -0.9,0.3 -1.4,0.4 -2.6,0.9 -5.1,2.2 -5.7,4.1 0,0.1 0,0.1 0,0.2 -0.3,0.7 -0.3,2.6 1.7,2.7 z"
         id="path6"
         inkscape:connector-curvature="0"
         style="fill:#ffa48f" /><path
         class="st0"
         d="m 58.6,124.1 c 0.4,0.2 0.8,0.3 1.4,0.4 1.2,0.2 2.3,0.2 3.4,0.1 2.1,-0.2 4,-0.7 6,-0.2 3,0.7 4,-1.5 2.9,-2.6 -0.7,-0.6 -2.6,-1.5 -4.9,-2 -1.5,-0.3 -3.1,-0.6 -4.6,-0.6 -0.1,0 -0.1,0 -0.2,0 -1.8,0 -3.5,0.4 -4.4,1.4 -0.1,0.1 -0.1,0.1 -0.2,0.2 -0.6,0.6 -1.5,2.4 0.6,3.3 z"
         id="path8"
         inkscape:connector-curvature="0"
         style="fill:#ee705c" /></g><path
       class="st0"
       d="m 35.4,127.8 c 0.1,1.1 1,-0.7 3.6,-3.5 2.6,-2.8 3.5,-1.8 5.7,-4 0.2,-0.2 0.4,-0.4 0.6,-0.7 1.4,-1.9 0.2,-3.5 -1.2,-3.2 0,0 -0.1,0 -0.2,0 -2.4,0.8 -9.1,5.9 -8.5,11.4 z"
       id="path12"
       inkscape:connector-curvature="0"
       style="fill:#ee705c" /><path
       class="st1"
       d="m 45.3,119.7 c 0.4,0.1 1,0.1 1.6,-0.1 1.4,-0.2 2.5,-0.7 3.6,-1.1 0.4,-0.2 0.9,-0.4 1.3,-0.6 1.3,-0.6 2.6,-1.2 4,-1.4 0.3,0 0.5,-0.1 0.7,-0.1 2.4,-0.6 2.4,-2.7 1.2,-3.3 -0.3,-0.1 -0.7,-0.2 -1.2,-0.3 -1.3,-0.2 -3.1,-0.2 -5,0.1 -0.5,0.1 -1,0.1 -1.4,0.2 -2.7,0.6 -5.3,1.6 -6.1,3.4 0,0.1 0,0.1 -0.1,0.2 -0.3,0.8 -0.6,2.7 1.4,3 z"
       id="path14"
       inkscape:connector-curvature="0"
       style="fill:#ffa48f" /><path
       class="st0"
       d="m 56.5,116.4 c 0.3,0.2 0.8,0.4 1.3,0.5 1.2,0.3 2.3,0.4 3.4,0.5 2.2,0.1 4.1,-0.2 6,0.5 2.9,1 4.1,-1.1 3.1,-2.3 -0.6,-0.7 -2.4,-1.7 -4.7,-2.5 -1.4,-0.5 -3,-0.9 -4.5,-1.1 -0.1,0 -0.1,0 -0.2,0 -1.8,-0.2 -3.5,0 -4.5,0.9 -0.1,0 -0.1,0.1 -0.2,0.2 -0.5,0.5 -1.6,2.2 0.3,3.3 z"
       id="path16"
       inkscape:connector-curvature="0"
       style="fill:#ee705c" /><path
       class="st0"
       d="m 47.5,151.6 c 0.5,0.9 0.7,-1 2,-4.6 1.3,-3.6 2.5,-3 3.8,-5.9 0.1,-0.3 0.2,-0.6 0.3,-0.8 0.6,-2.3 -1.1,-3.3 -2.3,-2.5 0,0 -0.1,0.1 -0.1,0.1 -2.1,1.5 -6.4,8.8 -3.7,13.7 z"
       id="path18"
       inkscape:connector-curvature="0"
       style="fill:#ee705c" /><path
       class="st1"
       d="m 51.1,137.9 v 0.2 c 0,0.9 0.5,2.7 2.4,2.2 0.4,-0.1 0.9,-0.3 1.5,-0.7 2.3,-1.4 3.5,-3.3 5,-4.7 0.3,-0.3 0.7,-0.6 1,-0.9 0.3,-0.2 0.6,-0.5 1,-0.7 0.2,-0.1 0.4,-0.3 0.6,-0.4 2,-1.5 1.2,-3.4 -0.2,-3.5 -0.3,0 -0.7,0 -1.2,0.2 -0.3,0.1 -0.7,0.2 -1.1,0.3 -0.4,0.1 -0.8,0.3 -1.2,0.5 -3.3,1.5 -7.7,4.5 -7.8,7.5 z"
       id="path20"
       inkscape:connector-curvature="0"
       style="fill:#ffa48f" /><path
       class="st0"
       d="m 62.7,132.9 c 0.4,0 0.9,0 1.4,0 3.5,-0.4 5.7,-2.3 8.4,-2.7 0.1,0 0.1,0 0.2,0 0.1,0 0.3,0 0.4,0 3,-0.2 3.4,-2.4 2.2,-3.2 -0.1,0 -0.1,-0.1 -0.2,-0.1 -0.9,-0.5 -3.1,-0.7 -5.6,-0.5 -3.4,0.2 -7.1,1.2 -8.2,3.3 0,0.1 -0.1,0.1 -0.1,0.2 -0.4,0.7 -0.8,2.7 1.5,3 z"
       id="path22"
       inkscape:connector-curvature="0"
       style="fill:#ee705c" /><g
       id="g30"><path
         class="st0"
         d="m 59.2,163.1 c 0.8,0.7 0.3,-1.2 0.5,-5 0.2,-3.8 1.5,-3.7 1.8,-6.8 0,-0.3 0,-0.6 0,-0.9 -0.2,-2.3 -2.1,-2.8 -3,-1.7 0,0 -0.1,0.1 -0.1,0.1 -1.3,2.2 -3.2,10.5 0.8,14.3 z"
         id="path24"
         inkscape:connector-curvature="0"
         style="fill:#ee705c" /><path
         class="st1"
         d="m 58.5,149 c 0,0.1 0,0.1 0,0.2 0.3,0.8 1.3,2.4 3,1.4 0.4,-0.2 0.8,-0.6 1.2,-1.1 1.8,-2.1 2.4,-4.3 3.4,-6.2 0.2,-0.4 0.5,-0.9 0.8,-1.3 0.2,-0.2 0.4,-0.4 0.6,-0.7 0.2,-0.2 0.3,-0.4 0.5,-0.6 1.4,-2 0.2,-3.6 -1.2,-3.2 -0.1,0 -0.3,0.1 -0.5,0.2 -0.2,0.1 -0.4,0.2 -0.6,0.3 -0.1,0.1 -0.3,0.2 -0.4,0.3 -3,2 -7.8,7.3 -6.8,10.7 z"
         id="path26"
         inkscape:connector-curvature="0"
         style="fill:#ffa48f" /><path
         class="st0"
         d="m 66.7,140.6 c 0.3,0.1 0.7,0.1 1.2,0.1 0.4,-0.1 0.8,-0.2 1.3,-0.5 2.8,-1.3 4.3,-3.3 6.3,-4.6 0.4,-0.3 0.9,-0.5 1.4,-0.8 2.9,-1.1 2.5,-3.5 0.9,-3.8 -0.5,-0.1 -1.2,0 -2.1,0.2 -3.1,0.6 -8.2,2.8 -9.8,5.5 -0.2,0.4 -0.4,0.8 -0.5,1.2 0,0.1 0,0.1 0,0.2 0.1,0.8 0.3,2.1 1.3,2.5 z"
         id="path28"
         inkscape:connector-curvature="0"
         style="fill:#ee705c" /></g><g
       id="g38"><path
         class="st0"
         d="m 165.7,137.9 c -0.2,1 -0.9,-0.8 -3.2,-3.9 -2.2,-3.1 -3.3,-2.2 -5.3,-4.6 -0.2,-0.2 -0.4,-0.5 -0.5,-0.7 -1.2,-2 0.2,-3.5 1.5,-3 0,0 0.1,0 0.1,0.1 2.5,0.9 8.6,6.7 7.4,12.1 z"
         id="path32"
         inkscape:connector-curvature="0"
         style="fill:#ee705c" /><path
         class="st1"
         d="m 156.8,128.7 c -0.4,0 -1,-0.1 -1.6,-0.2 -1.3,-0.4 -2.4,-0.9 -3.4,-1.5 -0.4,-0.2 -0.8,-0.5 -1.2,-0.8 -1.2,-0.8 -2.4,-1.5 -3.9,-1.8 -0.3,-0.1 -0.5,-0.1 -0.7,-0.2 -2.3,-0.9 -2.1,-2.9 -0.8,-3.4 0.3,-0.1 0.7,-0.2 1.2,-0.2 1.3,0 3.1,0.2 5,0.7 0.5,0.1 0.9,0.3 1.4,0.4 2.6,0.9 5.1,2.2 5.7,4.1 0,0.1 0,0.1 0,0.2 0.2,0.7 0.3,2.6 -1.7,2.7 z"
         id="path34"
         inkscape:connector-curvature="0"
         style="fill:#ffa48f" /><path
         class="st0"
         d="m 145.9,124.1 c -0.4,0.2 -0.8,0.3 -1.4,0.4 -1.2,0.2 -2.3,0.2 -3.4,0.1 -2.1,-0.2 -4,-0.7 -6,-0.2 -3,0.7 -4,-1.5 -2.9,-2.6 0.7,-0.6 2.6,-1.5 4.9,-2 1.5,-0.3 3.1,-0.6 4.6,-0.6 0.1,0 0.1,0 0.2,0 1.8,0 3.5,0.4 4.4,1.4 0.1,0.1 0.1,0.1 0.2,0.2 0.6,0.6 1.5,2.4 -0.6,3.3 z"
         id="path36"
         inkscape:connector-curvature="0"
         style="fill:#ee705c" /></g><path
       class="st0"
       d="m 169.2,127.8 c -0.1,1.1 -1,-0.7 -3.6,-3.5 -2.6,-2.8 -3.5,-1.8 -5.7,-4 -0.2,-0.2 -0.4,-0.4 -0.6,-0.7 -1.4,-1.9 -0.2,-3.5 1.2,-3.2 0,0 0.1,0 0.2,0 2.3,0.8 9,5.9 8.5,11.4 z"
       id="path40"
       inkscape:connector-curvature="0"
       style="fill:#ee705c" /><path
       class="st1"
       d="m 159.3,119.7 c -0.4,0.1 -1,0.1 -1.6,-0.1 -1.4,-0.2 -2.5,-0.7 -3.6,-1.1 -0.4,-0.2 -0.9,-0.4 -1.3,-0.6 -1.3,-0.6 -2.6,-1.2 -4,-1.4 -0.3,0 -0.5,-0.1 -0.7,-0.1 -2.4,-0.6 -2.4,-2.7 -1.2,-3.3 0.3,-0.1 0.7,-0.2 1.2,-0.3 1.3,-0.2 3.1,-0.2 5,0.1 0.5,0.1 1,0.1 1.4,0.2 2.7,0.6 5.3,1.6 6.1,3.4 0,0.1 0,0.1 0.1,0.2 0.3,0.8 0.5,2.7 -1.4,3 z"
       id="path42"
       inkscape:connector-curvature="0"
       style="fill:#ffa48f" /><path
       class="st0"
       d="m 148,116.4 c -0.3,0.2 -0.8,0.4 -1.3,0.5 -1.2,0.3 -2.3,0.4 -3.4,0.5 -2.2,0.1 -4.1,-0.2 -6,0.5 -2.9,1 -4.1,-1.1 -3.1,-2.3 0.6,-0.7 2.4,-1.7 4.7,-2.5 1.4,-0.5 3,-0.9 4.5,-1.1 0.1,0 0.1,0 0.2,0 1.8,-0.2 3.5,0 4.5,0.9 0.1,0 0.1,0.1 0.2,0.2 0.5,0.5 1.6,2.2 -0.3,3.3 z"
       id="path44"
       inkscape:connector-curvature="0"
       style="fill:#ee705c" /><path
       class="st0"
       d="m 157,151.6 c -0.5,0.9 -0.7,-1 -2,-4.6 -1.3,-3.6 -2.5,-3 -3.8,-5.9 -0.1,-0.3 -0.2,-0.6 -0.3,-0.8 -0.6,-2.3 1.1,-3.3 2.3,-2.5 0,0 0.1,0.1 0.1,0.1 2.1,1.5 6.4,8.8 3.7,13.7 z"
       id="path46"
       inkscape:connector-curvature="0"
       style="fill:#ee705c" /><path
       class="st1"
       d="m 153.4,137.9 v 0.2 c 0,0.9 -0.5,2.7 -2.4,2.2 -0.4,-0.1 -0.9,-0.3 -1.5,-0.7 -2.3,-1.4 -3.5,-3.3 -5,-4.7 -0.3,-0.3 -0.7,-0.6 -1,-0.9 -0.3,-0.2 -0.6,-0.5 -1,-0.7 -0.2,-0.1 -0.4,-0.3 -0.6,-0.4 -2,-1.5 -1.2,-3.4 0.2,-3.5 0.3,0 0.7,0 1.2,0.2 0.3,0.1 0.7,0.2 1.1,0.3 0.4,0.1 0.8,0.3 1.2,0.5 3.3,1.5 7.7,4.5 7.8,7.5 z"
       id="path48"
       inkscape:connector-curvature="0"
       style="fill:#ffa48f" /><path
       class="st0"
       d="m 141.9,132.9 c -0.4,0 -0.9,0 -1.4,0 -3.5,-0.4 -5.7,-2.3 -8.4,-2.7 -0.1,0 -0.1,0 -0.2,0 -0.1,0 -0.3,0 -0.4,0 -3,-0.2 -3.4,-2.4 -2.2,-3.2 0.1,0 0.1,-0.1 0.2,-0.1 0.9,-0.5 3.1,-0.7 5.6,-0.5 3.4,0.2 7.1,1.2 8.2,3.3 0,0.1 0.1,0.1 0.1,0.2 0.3,0.7 0.7,2.7 -1.5,3 z"
       id="path50"
       inkscape:connector-curvature="0"
       style="fill:#ee705c" /><g
       id="g58"><path
         class="st0"
         d="m 145.3,163.1 c -0.8,0.7 -0.3,-1.2 -0.5,-5 -0.2,-3.8 -1.5,-3.7 -1.8,-6.8 0,-0.3 0,-0.6 0,-0.9 0.2,-2.3 2.1,-2.8 3,-1.7 0,0 0.1,0.1 0.1,0.1 1.4,2.2 3.2,10.5 -0.8,14.3 z"
         id="path52"
         inkscape:connector-curvature="0"
         style="fill:#ee705c" /><path
         class="st1"
         d="m 146,149 c 0,0.1 0,0.1 0,0.2 -0.3,0.8 -1.3,2.4 -3,1.4 -0.4,-0.2 -0.8,-0.6 -1.2,-1.1 -1.8,-2.1 -2.4,-4.3 -3.4,-6.2 -0.2,-0.4 -0.5,-0.9 -0.8,-1.3 -0.2,-0.2 -0.4,-0.4 -0.6,-0.7 -0.2,-0.2 -0.3,-0.4 -0.5,-0.6 -1.4,-2 -0.2,-3.6 1.2,-3.2 0.1,0 0.3,0.1 0.5,0.2 0.2,0.1 0.4,0.2 0.6,0.3 0.1,0.1 0.3,0.2 0.4,0.3 3,2 7.8,7.3 6.8,10.7 z"
         id="path54"
         inkscape:connector-curvature="0"
         style="fill:#ffa48f" /><path
         class="st0"
         d="m 137.8,140.6 c -0.3,0.1 -0.7,0.1 -1.2,0.1 -0.4,-0.1 -0.8,-0.2 -1.3,-0.5 -2.8,-1.3 -4.3,-3.3 -6.3,-4.6 -0.4,-0.3 -0.9,-0.5 -1.4,-0.8 -2.9,-1.1 -2.5,-3.5 -0.9,-3.8 0.5,-0.1 1.2,0 2.1,0.2 3.1,0.6 8.2,2.8 9.8,5.5 0.2,0.4 0.4,0.8 0.5,1.2 0,0.1 0,0.1 0,0.2 -0.1,0.8 -0.2,2.1 -1.3,2.5 z"
         id="path56"
         inkscape:connector-curvature="0"
         style="fill:#ee705c" /></g><path
       class="st1"
       d="m 143.3,113.8 c 0,0.6 0,1.2 -0.1,1.9 v 0 c 0,0.1 0,0.1 0,0.2 0,0 0,0.1 0,0.2 0,0.4 -0.1,0.9 -0.2,1.3 -0.1,0.6 -0.2,1.2 -0.3,1.8 -0.4,1.7 -1,3.5 -1.7,5.3 -0.3,0.8 -0.7,1.6 -1.1,2.4 -0.8,1.6 -1.7,3.1 -2.8,4.7 -0.4,0.6 -0.9,1.3 -1.4,1.9 v 0 c -1,1.4 -2.2,2.7 -3.4,4 0,0 0,0 0,0 -2.6,2.8 -5.6,5.3 -8.7,7.4 -0.5,0.3 -1,0.6 -1.5,0.9 -5.9,3.7 -12.6,6 -19.1,6 h -0.2 c -0.2,0 -0.4,0 -0.6,0 -7,-0.1 -14.1,-2.8 -20.2,-7 -3.1,-2.1 -6,-4.6 -8.5,-7.3 -0.1,-0.1 -0.2,-0.2 -0.3,-0.3 -1.1,-1.2 -2.1,-2.4 -3.1,-3.7 -0.5,-0.6 -0.9,-1.3 -1.4,-1.9 -1,-1.5 -2,-3.1 -2.8,-4.7 -0.4,-0.8 -0.8,-1.6 -1.1,-2.4 -0.7,-1.7 -1.3,-3.5 -1.7,-5.3 -0.1,-0.6 -0.2,-1.2 -0.3,-1.8 -0.1,-0.5 -0.1,-1 -0.2,-1.5 v -0.1 c 0,0 0,-0.1 0,-0.1 -0.1,-0.6 -0.1,-1.2 -0.1,-1.9 0,-0.6 0,-1.1 0.1,-1.7 0.2,-2.2 0.7,-4.4 1.5,-6.4 0.1,-0.2 0.2,-0.5 0.3,-0.7 0.3,-0.7 0.6,-1.4 1,-2.1 0.5,-0.9 1,-1.7 1.6,-2.6 1.1,-1.7 2.5,-3.3 4,-4.8 0.1,-0.1 0.2,-0.2 0.2,-0.3 4.4,-4.3 10.1,-7.7 16.4,-9.8 2.9,-1 5.9,-1.7 9,-2.2 1.8,-0.3 3.7,-0.4 5.6,-0.4 0.2,0 0.4,0 0.6,0 h 0.2 c 2.1,0 4.3,0.2 6.4,0.5 2.8,0.4 5.5,1.1 8.1,1.9 0.3,0.1 0.5,0.2 0.8,0.3 6.3,2.2 12,5.6 16.4,9.8 0.1,0.1 0.1,0.1 0.2,0.2 1.5,1.5 2.9,3.1 4.1,4.8 0.6,0.8 1.1,1.7 1.6,2.5 0.4,0.7 0.7,1.4 1,2.1 0.1,0.2 0.2,0.4 0.3,0.7 0.8,2.1 1.3,4.2 1.5,6.4 -0.2,0.7 -0.1,1.2 -0.1,1.8 z"
       id="path60"
       inkscape:connector-curvature="0"
       style="fill:#ffa48f" /><g
       id="g90"><g
         id="g74"><g
           id="g72"><path
             class="st0"
             d="m 157.1,100.8 c -0.1,2.7 -1.4,5.3 -3.2,7.6 -0.4,0.5 -0.9,1.1 -1.4,1.6 -1.1,1.1 -2.2,2 -3.4,2.8 0,0 -0.1,0.1 -0.1,0.1 -0.6,0.4 -1.1,0.7 -1.7,1.1 -1,0.6 -2,1.1 -2.9,1.4 0,0 -0.1,0 -0.1,0.1 -0.4,0.1 -0.7,0.2 -1,0.3 v 0 c -0.3,0.1 -0.6,0.1 -0.9,0.2 -0.5,0 -1,0 -1.5,-0.2 0,0 0,0 0,0 -1,-0.3 -1.9,-1 -2.5,-1.9 -1,-1.5 -1.1,-3.7 1,-5.9 0.4,-0.4 0.8,-0.9 1.1,-1.3 0,0 0.1,-0.1 0.1,-0.2 0.4,-0.5 0.7,-0.9 1,-1.4 1.8,-2.9 2.5,-5.7 5.5,-9.6 0.2,-0.2 0.4,-0.5 0.6,-0.7 0.2,-0.3 0.5,-0.6 0.7,-0.8 1.1,-1.1 2.2,-1.6 3.1,-1.6 0.6,0 1.2,0.2 1.7,0.4 0.8,0.4 1.5,1.1 2,1.9 0.6,0.8 1.1,1.7 1.3,2.3 0.4,1.3 0.6,2.5 0.6,3.8 z"
             id="path62"
             inkscape:connector-curvature="0"
             style="fill:#ee705c" /><path
             class="st0"
             d="m 158,85.9 c 0,0.6 -0.1,1.1 -0.2,1.7 -0.5,2.8 -1.6,5.5 -2.7,7.2 0,0 0,0.1 -0.1,0.1 0,0 0,0.1 -0.1,0.1 -0.4,0.5 -0.7,0.9 -1,1.2 -0.3,0.3 -0.7,0.5 -1.1,0.6 -1.8,0.6 -4.2,-0.2 -4.6,-2.7 -0.1,-0.5 -0.1,-1 0,-1.6 0.1,-0.5 0.1,-0.9 0.1,-1.4 0.2,-3 -0.7,-4.9 -0.8,-8.2 0,-0.6 0,-1.3 0,-2 0,-0.2 0,-0.5 0,-0.7 0.1,-1.8 0.7,-2.8 1.4,-3.3 0.4,-0.3 0.9,-0.5 1.3,-0.5 1.5,-0.2 3.2,0.6 4.1,1.2 0.6,0.4 1.2,0.9 1.6,1.4 0.2,0.2 0.4,0.4 0.5,0.7 1.4,1.6 1.8,3.9 1.6,6.2 z"
             id="path64"
             inkscape:connector-curvature="0"
             style="fill:#ee705c" /><g
             id="g70"><path
               class="st0"
               d="m 142.1,73.6 c -1.9,0.9 -4.3,1 -6.5,-0.4 v 0 c -0.6,-0.4 -1.3,-0.9 -1.9,-1.4 -0.2,-0.2 -0.4,-0.3 -0.6,-0.5 -0.1,-0.1 -0.3,-0.2 -0.4,-0.3 -0.7,-0.6 -1.4,-1.2 -2.1,-1.8 -11.9,-11 -12,-25.5 -8.7,-22.6 1.4,1.3 0,6 9,12.7 2.9,2.1 5.3,3.2 7.4,3.6 0,0 0.8,-0.1 1.8,-0.1 1,0 2.2,0.2 3.2,0.6 1.1,0.5 2.1,1.3 2.3,2.7 0.8,3.4 -1,6.2 -3.5,7.5 z"
               id="path66"
               inkscape:connector-curvature="0"
               style="fill:#ee705c" /><path
               class="st0"
               d="m 159.5,73.4 c -0.5,1.1 -1.1,2.3 -1.9,3.5 -0.4,0.5 -0.8,1 -1.2,1.6 -0.1,0.1 -0.2,0.3 -0.3,0.4 -0.1,0.1 -0.1,0.1 -0.2,0.2 -2.6,2.9 -5.5,3.9 -8.4,3.7 v 0 c -4.8,-0.3 -9.6,-3.8 -12.9,-7 -0.6,-0.6 -1.2,-1.2 -1.7,-1.7 -0.1,-0.1 -0.1,-0.2 -0.2,-0.2 -1.2,-1.4 -2,-2.5 -2.1,-3 -0.2,-0.7 -0.2,-1.2 -0.1,-1.5 0.1,-0.6 0.6,-0.9 1.3,-1 1.1,-0.1 1.8,2.9 6.8,-2.8 0.5,-0.5 1,-1.3 1.4,-2.4 0,-0.1 0.1,-0.2 0.1,-0.3 1.1,-3.2 0.9,-8.4 -6.1,-14.6 -9.6,-8.5 -14.6,-5.9 -16.3,-7.2 -4.4,-3.3 15,-6.8 30.9,7.4 9,8 14.4,16.3 10.9,24.9 z"
               id="path68"
               inkscape:connector-curvature="0"
               style="fill:#ee705c" /></g></g></g><g
         id="g88"><g
           id="g86"><path
             class="st0"
             d="m 48.6,100.8 c 0.1,2.7 1.4,5.3 3.2,7.6 0.4,0.5 0.9,1.1 1.4,1.6 2.6,2.6 5.7,4.5 8.1,5.4 0.1,0 0.1,0 0.1,0.1 0.7,0.3 1.4,0.4 1.9,0.5 0.5,0 1,0 1.5,-0.2 2.7,-0.9 4.9,-4.3 1.5,-7.8 -0.4,-0.4 -0.8,-0.9 -1.1,-1.3 -2.7,-3.4 -3,-6.5 -6.5,-11.1 -0.2,-0.2 -0.4,-0.5 -0.6,-0.7 -1.4,-1.7 -2.7,-2.4 -3.9,-2.4 -0.6,0 -1.2,0.2 -1.7,0.4 -1.7,0.9 -2.9,3 -3.3,4.2 -0.4,1.2 -0.7,2.4 -0.6,3.7 z"
             id="path76"
             inkscape:connector-curvature="0"
             style="fill:#ee705c" /><path
             class="st0"
             d="m 49.1,79.5 c -1.2,1.8 -1.6,4.1 -1.4,6.4 0,0.6 0.1,1.1 0.2,1.7 0.5,2.9 1.7,5.6 2.8,7.3 0,0 0,0.1 0.1,0.1 0.4,0.5 0.7,0.9 1,1.2 0.3,0.3 0.7,0.5 1.1,0.6 2.1,0.7 5.2,-0.6 4.6,-4.4 -0.1,-0.5 -0.1,-0.9 -0.1,-1.4 -0.2,-3.5 1,-5.7 0.8,-10.2 0,-0.2 0,-0.5 0,-0.7 -0.1,-1.8 -0.7,-2.8 -1.4,-3.3 -0.4,-0.3 -0.9,-0.5 -1.3,-0.5 -1.5,-0.2 -3.2,0.6 -4.1,1.2 -1.1,0.4 -1.8,1.2 -2.3,2 z"
             id="path78"
             inkscape:connector-curvature="0"
             style="fill:#ee705c" /><g
             id="g84"><path
               class="st0"
               d="m 60,66.1 c -0.7,3.4 1,6.2 3.6,7.4 1.9,0.9 4.3,1 6.5,-0.4 v 0 c 0.6,-0.4 1.3,-0.9 1.9,-1.4 0.2,-0.2 0.4,-0.3 0.6,-0.5 0.1,-0.1 0.3,-0.2 0.4,-0.3 14,-11.1 14.3,-27.5 10.8,-24.3 -1.4,1.3 0,6 -9,12.7 -2.9,2.1 -5.3,3.2 -7.4,3.6 0,0 -2.8,-0.4 -5,0.5 -1.2,0.5 -2.2,1.3 -2.4,2.7 z"
               id="path80"
               inkscape:connector-curvature="0"
               style="fill:#ee705c" /><path
               class="st0"
               d="m 57,48.4 c -9,8 -14.4,16.4 -10.9,24.9 0.5,1.1 1.1,2.3 1.9,3.5 0.4,0.5 0.8,1 1.2,1.5 0.2,0.2 0.4,0.4 0.5,0.6 2.6,2.9 5.5,3.9 8.4,3.7 4.8,-0.3 9.6,-3.8 12.9,-7 0.6,-0.6 1.2,-1.2 1.6,-1.7 0.1,-0.1 0.1,-0.2 0.2,-0.2 1.2,-1.4 1.9,-2.5 2.1,-3 0.5,-1.9 0,-2.4 -1.1,-2.5 C 72.7,68.1 72,71.1 67,65.4 66.5,64.9 66,64.1 65.6,63 c -1.2,-3.2 -1.2,-8.5 6,-14.9 9.6,-8.5 14.6,-5.9 16.3,-7.2 4.4,-3.2 -15,-6.7 -30.9,7.5 z"
               id="path82"
               inkscape:connector-curvature="0"
               style="fill:#ee705c" /></g></g></g></g><g
       id="g104"><g
         id="g96"><path
           class="st2"
           d="m 119,82.9 c 0,1 -0.3,1.9 -0.8,2.7 -0.9,1.4 -2.4,2.3 -4.1,2.3 -0.3,0 -0.6,0 -0.9,-0.1 -2.1,-0.4 -3.7,-2.2 -3.9,-4.4 0,-0.2 0,-0.3 0,-0.5 0,-2 1.2,-3.8 3,-4.5 0.6,-0.3 1.2,-0.4 1.9,-0.4 2.6,-0.1 4.8,2.1 4.8,4.9 z"
           id="path92"
           inkscape:connector-curvature="0"
           style="fill:#333333" /><circle
           class="st3"
           cx="115.8"
           cy="81.599998"
           id="ellipse94"
           r="2.3"
           style="fill:#f7f5f6" /></g><g
         id="g102"><circle
           class="st2"
           cx="91.599998"
           cy="82.900002"
           id="ellipse98"
           r="4.9000001"
           style="fill:#333333" /><circle
           class="st3"
           cx="89.900002"
           cy="81.599998"
           id="ellipse100"
           r="2.3"
           style="fill:#f7f5f6" /></g></g><path
       class="st4"
       d="m 143.3,113.8 c 0,0.6 0,1.2 -0.1,1.9 v 0 c 0,0.1 0,0.1 0,0.2 0,0 0,0.1 0,0.2 0,0.4 -0.1,0.9 -0.2,1.3 -0.1,0.6 -0.2,1.2 -0.3,1.8 -0.4,1.7 -1,3.5 -1.7,5.3 -0.3,0.8 -0.7,1.6 -1.1,2.4 -0.8,1.6 -1.7,3.1 -2.8,4.7 -0.4,0.6 -0.9,1.3 -1.4,1.9 v 0 c -1,1.4 -2.2,2.7 -3.4,4 0,0 0,0 0,0 -2.6,2.8 -5.6,5.3 -8.7,7.4 -0.5,0.3 -1,0.6 -1.5,0.9 -5.9,3.7 -12.6,6 -19.1,6 h -0.2 c -0.2,0 -0.4,0 -0.6,0 -7,-0.1 -14.1,-2.8 -20.2,-7 -3.1,-2.1 -6,-4.6 -8.5,-7.3 -0.1,-0.1 -0.2,-0.2 -0.3,-0.3 -1.1,-1.2 -2.1,-2.4 -3.1,-3.7 -0.5,-0.6 -0.9,-1.3 -1.4,-1.9 -1,-1.5 -2,-3.1 -2.8,-4.7 -0.4,-0.8 -0.8,-1.6 -1.1,-2.4 -0.7,-1.7 -1.3,-3.5 -1.7,-5.3 -0.1,-0.6 -0.2,-1.2 -0.3,-1.8 -0.1,-0.5 -0.1,-1 -0.2,-1.5 v -0.1 c 0,0 0,-0.1 0,-0.1 -0.1,-0.6 -0.1,-1.2 -0.1,-1.9 0,-0.6 0,-1.1 0.1,-1.7 0.2,-2.2 0.7,-4.4 1.5,-6.4 0.1,-0.2 0.2,-0.5 0.3,-0.7 0.3,-0.7 0.6,-1.4 1,-2.1 0.5,-0.9 1,-1.7 1.6,-2.6 -0.5,1.5 -1.2,3.6 -1.6,6 -0.3,1.9 -0.6,4.1 -0.5,6.3 0,1 0.1,2 0.3,3 0.1,0.6 0.2,1.2 0.4,1.8 0.2,0.7 0.4,1.4 0.6,2 0.6,1.7 1.5,3.3 2.7,4.8 0,0 0,0 0,0 0.6,0.7 1.2,1.4 1.9,2 1.3,1.2 2.9,2.2 4.6,3.1 9.4,5 23.1,6.2 26.7,6.5 0.6,0 0.9,0.1 0.9,0.1 v 0.2 c 2,-0.1 17.4,-1.1 27.6,-6.6 1.7,-0.9 3.3,-2 4.7,-3.3 0.6,-0.6 1.2,-1.2 1.7,-1.8 0.1,-0.1 0.1,-0.1 0.2,-0.2 1.2,-1.5 2,-3.1 2.6,-4.8 0.2,-0.7 0.4,-1.3 0.6,-2 0.2,-0.6 0.3,-1.2 0.4,-1.8 0.2,-1 0.2,-2 0.3,-3 0.1,-2.2 -0.2,-4.3 -0.5,-6.3 -0.4,-2.4 -1.1,-4.5 -1.6,-6 0.6,0.8 1.1,1.7 1.6,2.5 0.4,0.7 0.7,1.4 1,2.1 0.1,0.2 0.2,0.4 0.3,0.7 0.8,2.1 1.3,4.2 1.5,6.4 -0.2,0.7 -0.1,1.2 -0.1,1.8 z"
       id="path106"
       inkscape:connector-curvature="0"
       style="opacity:0.2;fill:#ee705c" /></g><g
     id="g114"
     transform="translate(-35.362166,-38.035029)"><circle
       class="st5"
       cx="87.199997"
       cy="83.900002"
       r="15.7"
       id="circle110"
       style="fill:none;stroke:#523336;stroke-width:5;stroke-miterlimit:10" /><circle
       class="st5"
       cx="118.5"
       cy="85.099998"
       r="15.7"
       id="circle112"
       style="fill:none;stroke:#523336;stroke-width:5;stroke-miterlimit:10" /></g></svg>