<?xml version="1.0" encoding="UTF-8" standalone="no"?>
<!-- Generator: Adobe Illustrator 19.1.0, SVG Export Plug-In . SVG Version: 6.00 Build 0)  -->

<svg
   xmlns:dc="http://purl.org/dc/elements/1.1/"
   xmlns:cc="http://creativecommons.org/ns#"
   xmlns:rdf="http://www.w3.org/1999/02/22-rdf-syntax-ns#"
   xmlns:svg="http://www.w3.org/2000/svg"
   xmlns="http://www.w3.org/2000/svg"
   xmlns:sodipodi="http://sodipodi.sourceforge.net/DTD/sodipodi-0.dtd"
   xmlns:inkscape="http://www.inkscape.org/namespaces/inkscape"
   version="1.1"
   id="Ebene_1"
   x="0px"
   y="0px"
   viewBox="0 0 12.2 7.6999998"
   xml:space="preserve"
   sodipodi:docname="fish.svg"
   width="12.2"
   height="7.6999998"
   inkscape:version="0.92pre3 r"><metadata
     id="metadata27"><rdf:RDF><cc:Work
         rdf:about=""><dc:format>image/svg+xml</dc:format><dc:type
           rdf:resource="http://purl.org/dc/dcmitype/StillImage" /></cc:Work></rdf:RDF></metadata><defs
     id="defs25" /><sodipodi:namedview
     pagecolor="#ffffff"
     bordercolor="#666666"
     borderopacity="1"
     objecttolerance="10"
     gridtolerance="10"
     guidetolerance="10"
     inkscape:pageopacity="0"
     inkscape:pageshadow="2"
     inkscape:window-width="751"
     inkscape:window-height="480"
     id="namedview23"
     showgrid="false"
     inkscape:zoom="11.8"
     inkscape:cx="5.7"
     inkscape:cy="3.3"
     inkscape:window-x="417"
     inkscape:window-y="338"
     inkscape:window-maximized="0"
     inkscape:current-layer="Ebene_1" /><style
     type="text/css"
     id="style2">
	.st0{fill:url(#SVGID_1_);}
	.st1{fill:#F5AA3B;}
	.st2{fill:#0072B8;}
	.st3{fill:#19A6ED;}
	.st4{fill:#0065A8;}
	.st5{fill:#FFB37F;}
	.st6{fill:#FFC695;}
	.st7{fill:#F29555;}
	.st8{fill:#91C7CE;}
	.st9{fill:#F0F8FC;}
	.st10{fill:#ACD2EA;}
	.st11{opacity:0.5;fill:#4198C4;}
	.st12{fill:#74320A;}
	.st13{fill:#333331;}
	.st14{fill:#3281A0;}
	.st15{fill:#E4E7EA;}
	.st16{fill:#017ECE;}
	.st17{fill:#FFB27A;}
	.st18{fill:#ADA9A7;}
	.st19{fill:#D6AE90;}
	.st20{fill:#464655;}
	.st21{fill:#8C888A;}
	.st22{fill:#41BEEE;}
	.st23{fill:none;stroke:#424A60;stroke-linecap:round;stroke-miterlimit:10;}
	.st24{fill:#20A5E0;}
	.st25{fill:#FFFFFF;}
	.st26{opacity:0.2;enable-background:new    ;}
	.st27{fill:#CFC1A7;}
	.st28{fill:#A4A9AD;}
	.st29{opacity:0.1;enable-background:new    ;}
	.st30{fill:#A9E0F0;}
	.st31{fill:#D7DEED;}
	.st32{fill:#C7CFE2;}
	.st33{fill:#707487;}
	.st34{fill:url(#SVGID_2_);}
	.st35{fill:#E7EBF4;}
	.st36{fill:#5B5D6E;}
	.st37{fill:#F1D38D;}
</style><g
     id="g20"
     transform="translate(-4.3,-5.6)"><g
       id="g8"><path
         class="st17"
         d="m 11.8,12.1 h -0.9 l -0.3,0.4 0.8,0.8 c 0,0 0.6,-0.4 0.4,-1.2 z"
         id="path4"
         inkscape:connector-curvature="0"
         style="fill:#ffb27a" /><path
         class="st17"
         d="M 9.6,11.4 C 9.6,12 9,12.6 8.6,12.6 8.6,12.6 8.4,12 8,11.6 7.4,11 7.2,10.9 6.8,10 L 7.1,9.8 Z"
         id="path6"
         inkscape:connector-curvature="0"
         style="fill:#ffb27a" /></g><path
       class="st18"
       d="M 15.9,9.8 16.3,9.4 C 16.1,8.8 14.8,7 12.4,7 12,7 11.5,7.1 11,7.1 10.5,6.5 9.8,5.6 9.6,5.6 9.4,5.7 8,7 8,7.4 8,7.5 8.2,7.8 8.4,8 7.4,8.3 6.7,8.6 6.5,8.6 5.9,8.6 5.6,6.4 4.3,6.4 4.3,7.7 4.7,8.2 4.7,9 v 0.2 c 0,0.8 -0.4,1.3 -0.4,2.6 1.3,0 1.6,-2.2 2.2,-2.2 0.6,0 2.7,2.8 5.1,2.8 2.5,0 4.9,-1.7 4.9,-2.2 0,-0.6 -0.6,-0.4 -0.6,-0.4 z"
       id="path10"
       inkscape:connector-curvature="0"
       style="fill:#ada9a7" /><path
       class="st19"
       d="m 11.6,12.4 c 1.1,0 2.2,-0.3 3.1,-0.8 -0.5,-0.3 -0.9,-0.8 -0.9,-0.8 0,0 -1.2,0.6 -3.9,0 C 8.9,10.6 7.4,10 7,9.9 c 0.9,0.7 2.7,2.5 4.6,2.5 z"
       id="path12"
       inkscape:connector-curvature="0"
       style="fill:#d6ae90" /><path
       class="st17"
       d="m 13.3,11.2 -0.8,0.4 -1,-0.4 c 0.6,-0.5 1.6,-0.4 1.6,-0.4 z"
       id="path14"
       inkscape:connector-curvature="0"
       style="fill:#ffb27a" /><circle
       class="st20"
       cx="15.1"
       cy="9.3999996"
       r="0.40000001"
       id="circle16"
       style="fill:#464655" /><path
       class="st21"
       d="M 15.6,8.4 C 15,7.8 13.9,7 12.4,7 10,7 7,8.6 6.5,8.6 6.4,8.6 6.3,8.5 6.1,8.3 c 0,0 0,0 0,0 C 6,8.1 5.8,7.9 5.7,7.6 5.7,7.8 5.6,8 5.5,8.2 5.3,8.5 5.2,8.8 5.2,9.1 c 0,0.3 0.1,0.6 0.3,0.8 0.1,0.2 0.2,0.4 0.2,0.6 C 5.8,10.2 6,10 6.1,9.8 6.1,9.8 6,9.7 6,9.7 5.9,9.4 5.8,9.3 5.8,9.1 5.8,9 5.8,8.9 5.9,8.7 6.1,9 6.5,9.3 7.2,9 8,8.7 12.1,8.2 13.3,8.8 c 0.1,0 0.1,0.1 0.2,0.1 -0.1,0.3 -0.2,0.6 -0.2,0.9 0,0.8 0.4,1.5 1.1,1.9 0.2,-0.1 0.3,-0.1 0.5,-0.2 -0.7,-0.3 -1.2,-1 -1.2,-1.7 0,-0.3 0.1,-0.5 0.2,-0.8 0.7,0.1 1.3,-0.1 1.7,-0.6 z"
       id="path18"
       inkscape:connector-curvature="0"
       style="fill:#8c888a" /></g></svg>