<?xml version="1.0" encoding="UTF-8" standalone="no"?>
<!-- Generator: Adobe Illustrator 19.1.0, SVG Export Plug-In . SVG Version: 6.00 Build 0)  -->

<svg
   xmlns:dc="http://purl.org/dc/elements/1.1/"
   xmlns:cc="http://creativecommons.org/ns#"
   xmlns:rdf="http://www.w3.org/1999/02/22-rdf-syntax-ns#"
   xmlns:svg="http://www.w3.org/2000/svg"
   xmlns="http://www.w3.org/2000/svg"
   xmlns:xlink="http://www.w3.org/1999/xlink"
   xmlns:sodipodi="http://sodipodi.sourceforge.net/DTD/sodipodi-0.dtd"
   xmlns:inkscape="http://www.inkscape.org/namespaces/inkscape"
   version="1.1"
   id="Capa_1"
   x="0px"
   y="0px"
   viewBox="-290 111.6 184.7 197.60001"
   xml:space="preserve"
   sodipodi:docname="haushalte.svg"
   width="184.7"
   height="197.60001"
   inkscape:version="0.92.0 r"><metadata
     id="metadata525"><rdf:RDF><cc:Work
         rdf:about=""><dc:format>image/svg+xml</dc:format><dc:type
           rdf:resource="http://purl.org/dc/dcmitype/StillImage" /></cc:Work></rdf:RDF></metadata><defs
     id="defs523" /><sodipodi:namedview
     pagecolor="#ffffff"
     bordercolor="#666666"
     borderopacity="1"
     objecttolerance="10"
     gridtolerance="10"
     guidetolerance="10"
     inkscape:pageopacity="0"
     inkscape:pageshadow="2"
     inkscape:window-width="968"
     inkscape:window-height="1020"
     id="namedview521"
     showgrid="false"
     inkscape:zoom="0.62367866"
     inkscape:cx="103"
     inkscape:cy="60.800015"
     inkscape:window-x="20"
     inkscape:window-y="40"
     inkscape:window-maximized="0"
     inkscape:current-layer="Capa_1" /><style
     type="text/css"
     id="style2">
	.st0{clip-path:url(#SVGID_2_);fill:#F1F1F1;}
	.st1{clip-path:url(#SVGID_4_);fill:#E5E5E5;}
	.st2{clip-path:url(#SVGID_6_);fill:#F1F1F1;}
	.st3{clip-path:url(#SVGID_8_);fill:#E5E5E5;}
	.st4{clip-path:url(#SVGID_10_);fill:#F1F1F1;}
	.st5{clip-path:url(#SVGID_12_);fill:#E5E5E5;}
	.st6{clip-path:url(#SVGID_14_);fill:#F1F1F1;}
	.st7{clip-path:url(#SVGID_16_);fill:#E5E5E5;}
	.st8{clip-path:url(#SVGID_18_);fill:#F1F1F1;}
	.st9{clip-path:url(#SVGID_20_);fill:#E5E5E5;}
	.st10{clip-path:url(#SVGID_22_);fill:#F1F1F1;}
	.st11{clip-path:url(#SVGID_24_);fill:#E5E5E5;}
	.st12{clip-path:url(#SVGID_26_);fill:#F1F1F1;}
	.st13{clip-path:url(#SVGID_28_);fill:#E5E5E5;}
	.st14{clip-path:url(#SVGID_30_);fill:#F1F1F1;}
	.st15{clip-path:url(#SVGID_32_);fill:#E5E5E5;}
	.st16{clip-path:url(#SVGID_34_);fill:#F1F1F1;}
	.st17{clip-path:url(#SVGID_36_);fill:#E5E5E5;}
	.st18{clip-path:url(#SVGID_38_);fill:#F1F1F1;}
	.st19{clip-path:url(#SVGID_40_);fill:#E5E5E5;}
	.st20{clip-path:url(#SVGID_42_);fill:#F1F1F1;}
	.st21{clip-path:url(#SVGID_44_);fill:#E5E5E5;}
	.st22{clip-path:url(#SVGID_46_);fill:#F1F1F1;}
	.st23{clip-path:url(#SVGID_48_);fill:#E5E5E5;}
	.st24{clip-path:url(#SVGID_50_);fill:#F1F1F1;}
	.st25{clip-path:url(#SVGID_52_);fill:#E5E5E5;}
	.st26{clip-path:url(#SVGID_54_);fill:#F1F1F1;}
	.st27{clip-path:url(#SVGID_56_);fill:#E5E5E5;}
	.st28{clip-path:url(#SVGID_58_);fill:#F1F1F1;}
	.st29{clip-path:url(#SVGID_60_);fill:#E5E5E5;}
	.st30{clip-path:url(#SVGID_62_);fill:#F1F1F1;}
	.st31{clip-path:url(#SVGID_64_);fill:#E5E5E5;}
	.st32{clip-path:url(#SVGID_66_);fill:#F1F1F1;}
	.st33{clip-path:url(#SVGID_68_);fill:#E5E5E5;}
	.st34{clip-path:url(#SVGID_70_);fill:#F1F1F1;}
	.st35{clip-path:url(#SVGID_72_);fill:#E5E5E5;}
	.st36{clip-path:url(#SVGID_74_);fill:#F1F1F1;}
	.st37{clip-path:url(#SVGID_76_);fill:#E5E5E5;}
	.st38{clip-path:url(#SVGID_78_);fill:#F1F1F1;}
	.st39{clip-path:url(#SVGID_80_);fill:#E5E5E5;}
	.st40{clip-path:url(#SVGID_82_);fill:#F1F1F1;}
	.st41{clip-path:url(#SVGID_84_);fill:#E5E5E5;}
	.st42{fill:#768997;}
	.st43{opacity:0.5;fill:#B2B2B2;enable-background:new    ;}
	.st44{fill:#4D4D4D;}
	.st45{fill:#1A1A1A;}
	.st46{fill:#9FD6ED;}
	.st47{opacity:0.3;fill:#F1F1F1;enable-background:new    ;}
	.st48{fill:#017ECE;}
	.st49{fill:#41BEEE;}
	.st50{fill:#E4E7EA;}
	.st51{fill:#A57C52;}
	.st52{fill:#8BC53F;}
	.st53{fill:#C59B6D;}
</style><g
     id="g518"
     transform="translate(-86.2,-52.4)"><g
       id="g424"><g
         id="g12"><defs
           id="defs5"><polygon
             id="SVGID_1_"
             points="-36.5,254.8 -36.5,354.6 -186.5,354.6 -186.5,254.8 -111.5,181.5 " /></defs><clipPath
           id="SVGID_2_"><use
             xlink:href="#SVGID_1_"
             style="overflow:visible"
             id="use7"
             x="0"
             y="0"
             width="100%"
             height="100%" /></clipPath><rect
           x="-186.60001"
           y="348"
           class="st0"
           width="150.2"
           height="6.5999999"
           clip-path="url(#SVGID_2_)"
           id="rect10"
           style="fill:#f1f1f1" /></g><g
         id="g22"><defs
           id="defs15"><polygon
             id="SVGID_3_"
             points="-36.5,254.8 -36.5,354.6 -186.5,354.6 -186.5,254.8 -111.5,181.5 " /></defs><clipPath
           id="SVGID_4_"><use
             xlink:href="#SVGID_3_"
             style="overflow:visible"
             id="use17"
             x="0"
             y="0"
             width="100%"
             height="100%" /></clipPath><rect
           x="-186.60001"
           y="346.20001"
           class="st1"
           width="150.2"
           height="1.8"
           clip-path="url(#SVGID_4_)"
           id="rect20"
           style="fill:#e5e5e5" /></g><g
         id="g32"><defs
           id="defs25"><polygon
             id="SVGID_5_"
             points="-36.5,254.8 -36.5,354.6 -186.5,354.6 -186.5,254.8 -111.5,181.5 " /></defs><clipPath
           id="SVGID_6_"><use
             xlink:href="#SVGID_5_"
             style="overflow:visible"
             id="use27"
             x="0"
             y="0"
             width="100%"
             height="100%" /></clipPath><rect
           x="-186.60001"
           y="339.60001"
           class="st2"
           width="150.2"
           height="6.5999999"
           clip-path="url(#SVGID_6_)"
           id="rect30"
           style="fill:#f1f1f1" /></g><g
         id="g42"><defs
           id="defs35"><polygon
             id="SVGID_7_"
             points="-36.5,254.8 -36.5,354.6 -186.5,354.6 -186.5,254.8 -111.5,181.5 " /></defs><clipPath
           id="SVGID_8_"><use
             xlink:href="#SVGID_7_"
             style="overflow:visible"
             id="use37"
             x="0"
             y="0"
             width="100%"
             height="100%" /></clipPath><rect
           x="-186.60001"
           y="337.79999"
           class="st3"
           width="150.2"
           height="1.8"
           clip-path="url(#SVGID_8_)"
           id="rect40"
           style="fill:#e5e5e5" /></g><g
         id="g52"><defs
           id="defs45"><polygon
             id="SVGID_9_"
             points="-36.5,254.8 -36.5,354.6 -186.5,354.6 -186.5,254.8 -111.5,181.5 " /></defs><clipPath
           id="SVGID_10_"><use
             xlink:href="#SVGID_9_"
             style="overflow:visible"
             id="use47"
             x="0"
             y="0"
             width="100%"
             height="100%" /></clipPath><rect
           x="-186.60001"
           y="331.20001"
           class="st4"
           width="150.2"
           height="6.5999999"
           clip-path="url(#SVGID_10_)"
           id="rect50"
           style="fill:#f1f1f1" /></g><g
         id="g62"><defs
           id="defs55"><polygon
             id="SVGID_11_"
             points="-36.5,254.8 -36.5,354.6 -186.5,354.6 -186.5,254.8 -111.5,181.5 " /></defs><clipPath
           id="SVGID_12_"><use
             xlink:href="#SVGID_11_"
             style="overflow:visible"
             id="use57"
             x="0"
             y="0"
             width="100%"
             height="100%" /></clipPath><rect
           x="-186.60001"
           y="329.5"
           class="st5"
           width="150.2"
           height="1.8"
           clip-path="url(#SVGID_12_)"
           id="rect60"
           style="fill:#e5e5e5" /></g><g
         id="g72"><defs
           id="defs65"><polygon
             id="SVGID_13_"
             points="-36.5,254.8 -36.5,354.6 -186.5,354.6 -186.5,254.8 -111.5,181.5 " /></defs><clipPath
           id="SVGID_14_"><use
             xlink:href="#SVGID_13_"
             style="overflow:visible"
             id="use67"
             x="0"
             y="0"
             width="100%"
             height="100%" /></clipPath><rect
           x="-186.60001"
           y="322.89999"
           class="st6"
           width="150.2"
           height="6.5999999"
           clip-path="url(#SVGID_14_)"
           id="rect70"
           style="fill:#f1f1f1" /></g><g
         id="g82"><defs
           id="defs75"><polygon
             id="SVGID_15_"
             points="-36.5,254.8 -36.5,354.6 -186.5,354.6 -186.5,254.8 -111.5,181.5 " /></defs><clipPath
           id="SVGID_16_"><use
             xlink:href="#SVGID_15_"
             style="overflow:visible"
             id="use77"
             x="0"
             y="0"
             width="100%"
             height="100%" /></clipPath><rect
           x="-186.60001"
           y="321.10001"
           class="st7"
           width="150.2"
           height="1.8"
           clip-path="url(#SVGID_16_)"
           id="rect80"
           style="fill:#e5e5e5" /></g><g
         id="g92"><defs
           id="defs85"><polygon
             id="SVGID_17_"
             points="-36.5,254.8 -36.5,354.6 -186.5,354.6 -186.5,254.8 -111.5,181.5 " /></defs><clipPath
           id="SVGID_18_"><use
             xlink:href="#SVGID_17_"
             style="overflow:visible"
             id="use87"
             x="0"
             y="0"
             width="100%"
             height="100%" /></clipPath><rect
           x="-186.60001"
           y="314.5"
           class="st8"
           width="150.2"
           height="6.5999999"
           clip-path="url(#SVGID_18_)"
           id="rect90"
           style="fill:#f1f1f1" /></g><g
         id="g102"><defs
           id="defs95"><polygon
             id="SVGID_19_"
             points="-36.5,254.8 -36.5,354.6 -186.5,354.6 -186.5,254.8 -111.5,181.5 " /></defs><clipPath
           id="SVGID_20_"><use
             xlink:href="#SVGID_19_"
             style="overflow:visible"
             id="use97"
             x="0"
             y="0"
             width="100%"
             height="100%" /></clipPath><rect
           x="-186.60001"
           y="312.70001"
           class="st9"
           width="150.2"
           height="1.8"
           clip-path="url(#SVGID_20_)"
           id="rect100"
           style="fill:#e5e5e5" /></g><g
         id="g112"><defs
           id="defs105"><polygon
             id="SVGID_21_"
             points="-36.5,254.8 -36.5,354.6 -186.5,354.6 -186.5,254.8 -111.5,181.5 " /></defs><clipPath
           id="SVGID_22_"><use
             xlink:href="#SVGID_21_"
             style="overflow:visible"
             id="use107"
             x="0"
             y="0"
             width="100%"
             height="100%" /></clipPath><rect
           x="-186.60001"
           y="306.10001"
           class="st10"
           width="150.2"
           height="6.5999999"
           clip-path="url(#SVGID_22_)"
           id="rect110"
           style="fill:#f1f1f1" /></g><g
         id="g122"><defs
           id="defs115"><polygon
             id="SVGID_23_"
             points="-36.5,254.8 -36.5,354.6 -186.5,354.6 -186.5,254.8 -111.5,181.5 " /></defs><clipPath
           id="SVGID_24_"><use
             xlink:href="#SVGID_23_"
             style="overflow:visible"
             id="use117"
             x="0"
             y="0"
             width="100%"
             height="100%" /></clipPath><rect
           x="-186.60001"
           y="304.39999"
           class="st11"
           width="150.2"
           height="1.8"
           clip-path="url(#SVGID_24_)"
           id="rect120"
           style="fill:#e5e5e5" /></g><g
         id="g132"><defs
           id="defs125"><polygon
             id="SVGID_25_"
             points="-36.5,254.8 -36.5,354.6 -186.5,354.6 -186.5,254.8 -111.5,181.5 " /></defs><clipPath
           id="SVGID_26_"><use
             xlink:href="#SVGID_25_"
             style="overflow:visible"
             id="use127"
             x="0"
             y="0"
             width="100%"
             height="100%" /></clipPath><rect
           x="-186.60001"
           y="297.79999"
           class="st12"
           width="150.2"
           height="6.5999999"
           clip-path="url(#SVGID_26_)"
           id="rect130"
           style="fill:#f1f1f1" /></g><g
         id="g142"><defs
           id="defs135"><polygon
             id="SVGID_27_"
             points="-36.5,254.8 -36.5,354.6 -186.5,354.6 -186.5,254.8 -111.5,181.5 " /></defs><clipPath
           id="SVGID_28_"><use
             xlink:href="#SVGID_27_"
             style="overflow:visible"
             id="use137"
             x="0"
             y="0"
             width="100%"
             height="100%" /></clipPath><rect
           x="-186.60001"
           y="296"
           class="st13"
           width="150.2"
           height="1.8"
           clip-path="url(#SVGID_28_)"
           id="rect140"
           style="fill:#e5e5e5" /></g><g
         id="g152"><defs
           id="defs145"><polygon
             id="SVGID_29_"
             points="-36.5,254.8 -36.5,354.6 -186.5,354.6 -186.5,254.8 -111.5,181.5 " /></defs><clipPath
           id="SVGID_30_"><use
             xlink:href="#SVGID_29_"
             style="overflow:visible"
             id="use147"
             x="0"
             y="0"
             width="100%"
             height="100%" /></clipPath><rect
           x="-186.60001"
           y="289.39999"
           class="st14"
           width="150.2"
           height="6.5999999"
           clip-path="url(#SVGID_30_)"
           id="rect150"
           style="fill:#f1f1f1" /></g><g
         id="g162"><defs
           id="defs155"><polygon
             id="SVGID_31_"
             points="-36.5,254.8 -36.5,354.6 -186.5,354.6 -186.5,254.8 -111.5,181.5 " /></defs><clipPath
           id="SVGID_32_"><use
             xlink:href="#SVGID_31_"
             style="overflow:visible"
             id="use157"
             x="0"
             y="0"
             width="100%"
             height="100%" /></clipPath><rect
           x="-186.60001"
           y="287.60001"
           class="st15"
           width="150.2"
           height="1.8"
           clip-path="url(#SVGID_32_)"
           id="rect160"
           style="fill:#e5e5e5" /></g><g
         id="g172"><defs
           id="defs165"><polygon
             id="SVGID_33_"
             points="-36.5,254.8 -36.5,354.6 -186.5,354.6 -186.5,254.8 -111.5,181.5 " /></defs><clipPath
           id="SVGID_34_"><use
             xlink:href="#SVGID_33_"
             style="overflow:visible"
             id="use167"
             x="0"
             y="0"
             width="100%"
             height="100%" /></clipPath><rect
           x="-186.60001"
           y="281"
           class="st16"
           width="150.2"
           height="6.5999999"
           clip-path="url(#SVGID_34_)"
           id="rect170"
           style="fill:#f1f1f1" /></g><g
         id="g182"><defs
           id="defs175"><polygon
             id="SVGID_35_"
             points="-36.5,254.8 -36.5,354.6 -186.5,354.6 -186.5,254.8 -111.5,181.5 " /></defs><clipPath
           id="SVGID_36_"><use
             xlink:href="#SVGID_35_"
             style="overflow:visible"
             id="use177"
             x="0"
             y="0"
             width="100%"
             height="100%" /></clipPath><rect
           x="-186.60001"
           y="279.29999"
           class="st17"
           width="150.2"
           height="1.8"
           clip-path="url(#SVGID_36_)"
           id="rect180"
           style="fill:#e5e5e5" /></g><g
         id="g192"><defs
           id="defs185"><polygon
             id="SVGID_37_"
             points="-36.5,254.8 -36.5,354.6 -186.5,354.6 -186.5,254.8 -111.5,181.5 " /></defs><clipPath
           id="SVGID_38_"><use
             xlink:href="#SVGID_37_"
             style="overflow:visible"
             id="use187"
             x="0"
             y="0"
             width="100%"
             height="100%" /></clipPath><rect
           x="-186.60001"
           y="272.70001"
           class="st18"
           width="150.2"
           height="6.5999999"
           clip-path="url(#SVGID_38_)"
           id="rect190"
           style="fill:#f1f1f1" /></g><g
         id="g202"><defs
           id="defs195"><polygon
             id="SVGID_39_"
             points="-36.5,254.8 -36.5,354.6 -186.5,354.6 -186.5,254.8 -111.5,181.5 " /></defs><clipPath
           id="SVGID_40_"><use
             xlink:href="#SVGID_39_"
             style="overflow:visible"
             id="use197"
             x="0"
             y="0"
             width="100%"
             height="100%" /></clipPath><rect
           x="-186.60001"
           y="270.89999"
           class="st19"
           width="150.2"
           height="1.8"
           clip-path="url(#SVGID_40_)"
           id="rect200"
           style="fill:#e5e5e5" /></g><g
         id="g212"><defs
           id="defs205"><polygon
             id="SVGID_41_"
             points="-36.5,254.8 -36.5,354.6 -186.5,354.6 -186.5,254.8 -111.5,181.5 " /></defs><clipPath
           id="SVGID_42_"><use
             xlink:href="#SVGID_41_"
             style="overflow:visible"
             id="use207"
             x="0"
             y="0"
             width="100%"
             height="100%" /></clipPath><rect
           x="-186.60001"
           y="264.29999"
           class="st20"
           width="150.2"
           height="6.5999999"
           clip-path="url(#SVGID_42_)"
           id="rect210"
           style="fill:#f1f1f1" /></g><g
         id="g222"><defs
           id="defs215"><polygon
             id="SVGID_43_"
             points="-36.5,254.8 -36.5,354.6 -186.5,354.6 -186.5,254.8 -111.5,181.5 " /></defs><clipPath
           id="SVGID_44_"><use
             xlink:href="#SVGID_43_"
             style="overflow:visible"
             id="use217"
             x="0"
             y="0"
             width="100%"
             height="100%" /></clipPath><rect
           x="-186.60001"
           y="262.5"
           class="st21"
           width="150.2"
           height="1.8"
           clip-path="url(#SVGID_44_)"
           id="rect220"
           style="fill:#e5e5e5" /></g><g
         id="g232"><defs
           id="defs225"><polygon
             id="SVGID_45_"
             points="-36.5,254.8 -36.5,354.6 -186.5,354.6 -186.5,254.8 -111.5,181.5 " /></defs><clipPath
           id="SVGID_46_"><use
             xlink:href="#SVGID_45_"
             style="overflow:visible"
             id="use227"
             x="0"
             y="0"
             width="100%"
             height="100%" /></clipPath><rect
           x="-186.60001"
           y="255.89999"
           class="st22"
           width="150.2"
           height="6.5999999"
           clip-path="url(#SVGID_46_)"
           id="rect230"
           style="fill:#f1f1f1" /></g><g
         id="g242"><defs
           id="defs235"><polygon
             id="SVGID_47_"
             points="-36.5,254.8 -36.5,354.6 -186.5,354.6 -186.5,254.8 -111.5,181.5 " /></defs><clipPath
           id="SVGID_48_"><use
             xlink:href="#SVGID_47_"
             style="overflow:visible"
             id="use237"
             x="0"
             y="0"
             width="100%"
             height="100%" /></clipPath><rect
           x="-186.60001"
           y="254.2"
           class="st23"
           width="150.2"
           height="1.8"
           clip-path="url(#SVGID_48_)"
           id="rect240"
           style="fill:#e5e5e5" /></g><g
         id="g252"><defs
           id="defs245"><polygon
             id="SVGID_49_"
             points="-36.5,254.8 -36.5,354.6 -186.5,354.6 -186.5,254.8 -111.5,181.5 " /></defs><clipPath
           id="SVGID_50_"><use
             xlink:href="#SVGID_49_"
             style="overflow:visible"
             id="use247"
             x="0"
             y="0"
             width="100%"
             height="100%" /></clipPath><rect
           x="-186.60001"
           y="247.60001"
           class="st24"
           width="150.2"
           height="6.5999999"
           clip-path="url(#SVGID_50_)"
           id="rect250"
           style="fill:#f1f1f1" /></g><g
         id="g262"><defs
           id="defs255"><polygon
             id="SVGID_51_"
             points="-36.5,254.8 -36.5,354.6 -186.5,354.6 -186.5,254.8 -111.5,181.5 " /></defs><clipPath
           id="SVGID_52_"><use
             xlink:href="#SVGID_51_"
             style="overflow:visible"
             id="use257"
             x="0"
             y="0"
             width="100%"
             height="100%" /></clipPath><rect
           x="-186.60001"
           y="245.8"
           class="st25"
           width="150.2"
           height="1.8"
           clip-path="url(#SVGID_52_)"
           id="rect260"
           style="fill:#e5e5e5" /></g><g
         id="g272"><defs
           id="defs265"><polygon
             id="SVGID_53_"
             points="-36.5,254.8 -36.5,354.6 -186.5,354.6 -186.5,254.8 -111.5,181.5 " /></defs><clipPath
           id="SVGID_54_"><use
             xlink:href="#SVGID_53_"
             style="overflow:visible"
             id="use267"
             x="0"
             y="0"
             width="100%"
             height="100%" /></clipPath><rect
           x="-186.60001"
           y="239.2"
           class="st26"
           width="150.2"
           height="6.5999999"
           clip-path="url(#SVGID_54_)"
           id="rect270"
           style="fill:#f1f1f1" /></g><g
         id="g282"><defs
           id="defs275"><polygon
             id="SVGID_55_"
             points="-36.5,254.8 -36.5,354.6 -186.5,354.6 -186.5,254.8 -111.5,181.5 " /></defs><clipPath
           id="SVGID_56_"><use
             xlink:href="#SVGID_55_"
             style="overflow:visible"
             id="use277"
             x="0"
             y="0"
             width="100%"
             height="100%" /></clipPath><rect
           x="-186.60001"
           y="237.39999"
           class="st27"
           width="150.2"
           height="1.8"
           clip-path="url(#SVGID_56_)"
           id="rect280"
           style="fill:#e5e5e5" /></g><g
         id="g292"><defs
           id="defs285"><polygon
             id="SVGID_57_"
             points="-36.5,254.8 -36.5,354.6 -186.5,354.6 -186.5,254.8 -111.5,181.5 " /></defs><clipPath
           id="SVGID_58_"><use
             xlink:href="#SVGID_57_"
             style="overflow:visible"
             id="use287"
             x="0"
             y="0"
             width="100%"
             height="100%" /></clipPath><rect
           x="-186.60001"
           y="230.8"
           class="st28"
           width="150.2"
           height="6.5999999"
           clip-path="url(#SVGID_58_)"
           id="rect290"
           style="fill:#f1f1f1" /></g><g
         id="g302"><defs
           id="defs295"><polygon
             id="SVGID_59_"
             points="-36.5,254.8 -36.5,354.6 -186.5,354.6 -186.5,254.8 -111.5,181.5 " /></defs><clipPath
           id="SVGID_60_"><use
             xlink:href="#SVGID_59_"
             style="overflow:visible"
             id="use297"
             x="0"
             y="0"
             width="100%"
             height="100%" /></clipPath><rect
           x="-186.60001"
           y="229.10001"
           class="st29"
           width="150.2"
           height="1.8"
           clip-path="url(#SVGID_60_)"
           id="rect300"
           style="fill:#e5e5e5" /></g><g
         id="g312"><defs
           id="defs305"><polygon
             id="SVGID_61_"
             points="-36.5,254.8 -36.5,354.6 -186.5,354.6 -186.5,254.8 -111.5,181.5 " /></defs><clipPath
           id="SVGID_62_"><use
             xlink:href="#SVGID_61_"
             style="overflow:visible"
             id="use307"
             x="0"
             y="0"
             width="100%"
             height="100%" /></clipPath><rect
           x="-186.60001"
           y="222.5"
           class="st30"
           width="150.2"
           height="6.5999999"
           clip-path="url(#SVGID_62_)"
           id="rect310"
           style="fill:#f1f1f1" /></g><g
         id="g322"><defs
           id="defs315"><polygon
             id="SVGID_63_"
             points="-36.5,254.8 -36.5,354.6 -186.5,354.6 -186.5,254.8 -111.5,181.5 " /></defs><clipPath
           id="SVGID_64_"><use
             xlink:href="#SVGID_63_"
             style="overflow:visible"
             id="use317"
             x="0"
             y="0"
             width="100%"
             height="100%" /></clipPath><rect
           x="-186.60001"
           y="220.7"
           class="st31"
           width="150.2"
           height="1.8"
           clip-path="url(#SVGID_64_)"
           id="rect320"
           style="fill:#e5e5e5" /></g><g
         id="g332"><defs
           id="defs325"><polygon
             id="SVGID_65_"
             points="-36.5,254.8 -36.5,354.6 -186.5,354.6 -186.5,254.8 -111.5,181.5 " /></defs><clipPath
           id="SVGID_66_"><use
             xlink:href="#SVGID_65_"
             style="overflow:visible"
             id="use327"
             x="0"
             y="0"
             width="100%"
             height="100%" /></clipPath><rect
           x="-186.60001"
           y="214.10001"
           class="st32"
           width="150.2"
           height="6.5999999"
           clip-path="url(#SVGID_66_)"
           id="rect330"
           style="fill:#f1f1f1" /></g><g
         id="g342"><defs
           id="defs335"><polygon
             id="SVGID_67_"
             points="-36.5,254.8 -36.5,354.6 -186.5,354.6 -186.5,254.8 -111.5,181.5 " /></defs><clipPath
           id="SVGID_68_"><use
             xlink:href="#SVGID_67_"
             style="overflow:visible"
             id="use337"
             x="0"
             y="0"
             width="100%"
             height="100%" /></clipPath><rect
           x="-186.60001"
           y="212.3"
           class="st33"
           width="150.2"
           height="1.8"
           clip-path="url(#SVGID_68_)"
           id="rect340"
           style="fill:#e5e5e5" /></g><g
         id="g352"><defs
           id="defs345"><polygon
             id="SVGID_69_"
             points="-36.5,254.8 -36.5,354.6 -186.5,354.6 -186.5,254.8 -111.5,181.5 " /></defs><clipPath
           id="SVGID_70_"><use
             xlink:href="#SVGID_69_"
             style="overflow:visible"
             id="use347"
             x="0"
             y="0"
             width="100%"
             height="100%" /></clipPath><rect
           x="-186.60001"
           y="205.7"
           class="st34"
           width="150.2"
           height="6.5999999"
           clip-path="url(#SVGID_70_)"
           id="rect350"
           style="fill:#f1f1f1" /></g><g
         id="g362"><defs
           id="defs355"><polygon
             id="SVGID_71_"
             points="-36.5,254.8 -36.5,354.6 -186.5,354.6 -186.5,254.8 -111.5,181.5 " /></defs><clipPath
           id="SVGID_72_"><use
             xlink:href="#SVGID_71_"
             style="overflow:visible"
             id="use357"
             x="0"
             y="0"
             width="100%"
             height="100%" /></clipPath><rect
           x="-186.60001"
           y="204"
           class="st35"
           width="150.2"
           height="1.8"
           clip-path="url(#SVGID_72_)"
           id="rect360"
           style="fill:#e5e5e5" /></g><g
         id="g372"><defs
           id="defs365"><polygon
             id="SVGID_73_"
             points="-36.5,254.8 -36.5,354.6 -186.5,354.6 -186.5,254.8 -111.5,181.5 " /></defs><clipPath
           id="SVGID_74_"><use
             xlink:href="#SVGID_73_"
             style="overflow:visible"
             id="use367"
             x="0"
             y="0"
             width="100%"
             height="100%" /></clipPath><rect
           x="-186.60001"
           y="197.39999"
           class="st36"
           width="150.2"
           height="6.5999999"
           clip-path="url(#SVGID_74_)"
           id="rect370"
           style="fill:#f1f1f1" /></g><g
         id="g382"><defs
           id="defs375"><polygon
             id="SVGID_75_"
             points="-36.5,254.8 -36.5,354.6 -186.5,354.6 -186.5,254.8 -111.5,181.5 " /></defs><clipPath
           id="SVGID_76_"><use
             xlink:href="#SVGID_75_"
             style="overflow:visible"
             id="use377"
             x="0"
             y="0"
             width="100%"
             height="100%" /></clipPath><rect
           x="-186.60001"
           y="195.60001"
           class="st37"
           width="150.2"
           height="1.8"
           clip-path="url(#SVGID_76_)"
           id="rect380"
           style="fill:#e5e5e5" /></g><g
         id="g392"><defs
           id="defs385"><polygon
             id="SVGID_77_"
             points="-36.5,254.8 -36.5,354.6 -186.5,354.6 -186.5,254.8 -111.5,181.5 " /></defs><clipPath
           id="SVGID_78_"><use
             xlink:href="#SVGID_77_"
             style="overflow:visible"
             id="use387"
             x="0"
             y="0"
             width="100%"
             height="100%" /></clipPath><rect
           x="-186.60001"
           y="189"
           class="st38"
           width="150.2"
           height="6.5999999"
           clip-path="url(#SVGID_78_)"
           id="rect390"
           style="fill:#f1f1f1" /></g><g
         id="g402"><defs
           id="defs395"><polygon
             id="SVGID_79_"
             points="-36.5,254.8 -36.5,354.6 -186.5,354.6 -186.5,254.8 -111.5,181.5 " /></defs><clipPath
           id="SVGID_80_"><use
             xlink:href="#SVGID_79_"
             style="overflow:visible"
             id="use397"
             x="0"
             y="0"
             width="100%"
             height="100%" /></clipPath><rect
           x="-186.60001"
           y="187.2"
           class="st39"
           width="150.2"
           height="1.8"
           clip-path="url(#SVGID_80_)"
           id="rect400"
           style="fill:#e5e5e5" /></g><g
         id="g412"><defs
           id="defs405"><polygon
             id="SVGID_81_"
             points="-36.5,254.8 -36.5,354.6 -186.5,354.6 -186.5,254.8 -111.5,181.5 " /></defs><clipPath
           id="SVGID_82_"><use
             xlink:href="#SVGID_81_"
             style="overflow:visible"
             id="use407"
             x="0"
             y="0"
             width="100%"
             height="100%" /></clipPath><rect
           x="-186.60001"
           y="180.60001"
           class="st40"
           width="150.2"
           height="6.5999999"
           clip-path="url(#SVGID_82_)"
           id="rect410"
           style="fill:#f1f1f1" /></g><g
         id="g422"><defs
           id="defs415"><polygon
             id="SVGID_83_"
             points="-36.5,254.8 -36.5,354.6 -186.5,354.6 -186.5,254.8 -111.5,181.5 " /></defs><clipPath
           id="SVGID_84_"><use
             xlink:href="#SVGID_83_"
             style="overflow:visible"
             id="use417"
             x="0"
             y="0"
             width="100%"
             height="100%" /></clipPath><rect
           x="-186.60001"
           y="178.89999"
           class="st41"
           width="150.2"
           height="1.8"
           clip-path="url(#SVGID_84_)"
           id="rect420"
           style="fill:#e5e5e5" /></g></g><rect
       x="-71.5"
       y="193.7"
       class="st42"
       width="15.3"
       height="27"
       id="rect426"
       style="fill:#768997" /><polygon
       class="st43"
       points="-111.5,181.5 -36.5,254.8 -36.5,263.3 -111.5,189.8 -186.5,263.3 -186.5,254.8 "
       id="polygon428"
       style="opacity:0.5;fill:#b2b2b2;enable-background:new" /><g
       id="g434"><path
         class="st44"
         d="m -190.3,361.6 v -3.8 c 0,-1.8 1.6,-3.2 3.6,-3.2 h 150.5 c 2,0 3.6,1.5 3.6,3.2 v 3.8 z"
         id="path430"
         inkscape:connector-curvature="0"
         style="fill:#4d4d4d" /><rect
         x="-190.3"
         y="360.20001"
         class="st45"
         width="157.7"
         height="1.4"
         id="rect432"
         style="fill:#1a1a1a" /></g><g
       id="g460"><g
         id="g446"><g
           id="g440"><rect
             x="-81.800003"
             y="286.79999"
             class="st46"
             width="26.9"
             height="36.799999"
             id="rect436"
             style="fill:#9fd6ed" /><path
             class="st42"
             d="m -85.4,283.3 v 44 h 34 v -44 z m 3.6,3.5 h 26.9 v 36.8 h -26.9 z"
             id="path438"
             inkscape:connector-curvature="0"
             style="fill:#768997" /></g><polygon
           class="st47"
           points="-54.9,314.4 -81.8,293.7 -81.8,287.8 -54.9,308.4 "
           id="polygon442"
           style="opacity:0.3;fill:#f1f1f1;enable-background:new" /><polygon
           class="st47"
           points="-54.9,323.7 -81.8,303 -81.8,297.1 -54.9,317.7 "
           id="polygon444"
           style="opacity:0.3;fill:#f1f1f1;enable-background:new" /></g><g
         id="g458"><g
           id="g452"><rect
             x="-112.2"
             y="286.79999"
             class="st46"
             width="26.9"
             height="36.799999"
             id="rect448"
             style="fill:#9fd6ed" /><path
             class="st42"
             d="m -115.8,283.3 v 44 h 34 v -44 z m 3.6,3.5 h 26.9 v 36.8 h -26.9 z"
             id="path450"
             inkscape:connector-curvature="0"
             style="fill:#768997" /></g><polygon
           class="st47"
           points="-85.4,314.4 -112.2,293.7 -112.2,287.8 -85.4,308.4 "
           id="polygon454"
           style="opacity:0.3;fill:#f1f1f1;enable-background:new" /><polygon
           class="st47"
           points="-85.4,323.7 -112.2,303 -112.2,297.1 -85.4,317.7 "
           id="polygon456"
           style="opacity:0.3;fill:#f1f1f1;enable-background:new" /></g></g><g
       id="g480"><g
         id="g466"><rect
           x="-158.7"
           y="275"
           class="st48"
           width="31.5"
           height="79.599998"
           id="rect462"
           style="fill:#017ece" /><polygon
           class="st44"
           points="-129,356.4 -129,352.8 -129,352.8 -129,276.8 -156.9,276.8 -156.9,352.8 -156.9,352.8 -156.9,356.4 -160.5,356.4 -160.5,273.2 -125.4,273.2 -125.4,356.4 "
           id="polygon464"
           style="fill:#4d4d4d" /></g><rect
         x="-163"
         y="354.60001"
         class="st45"
         width="40.099998"
         height="7"
         id="rect468"
         style="fill:#1a1a1a" /><g
         id="g472"><path
           class="st49"
           d="m -153.5,308 c 3.5,-0.1 7,-0.2 10.5,-0.3 3.5,-0.1 7,-0.1 10.5,-0.2 l -0.4,0.4 -0.1,-6.6 v -6.6 l -0.1,-13.3 0.6,0.6 -21.1,-0.1 0.5,-0.5 -0.2,13.3 -0.1,6.6 z m 0,0 -0.2,-6.6 -0.1,-6.6 -0.2,-13.3 V 281 h 0.5 l 21.1,-0.1 h 0.6 v 0.6 l -0.1,13.3 v 6.6 l -0.1,6.6 v 0.4 h -0.4 c -3.5,-0.1 -7,-0.1 -10.5,-0.2 -3.6,0 -7.1,-0.1 -10.6,-0.2 z"
           id="path470"
           inkscape:connector-curvature="0"
           style="fill:#41beee" /></g><g
         id="g476"><path
           class="st49"
           d="m -153.5,348 c 3.5,-0.1 7,-0.2 10.5,-0.3 3.5,-0.1 7,-0.1 10.5,-0.2 l -0.4,0.4 -0.1,-6.6 v -6.6 l -0.1,-13.3 0.6,0.6 -21.1,-0.1 0.5,-0.5 -0.2,13.3 -0.1,6.6 z m 0,0 -0.2,-6.6 -0.1,-6.6 -0.2,-13.3 V 321 h 0.5 l 21.1,-0.1 h 0.6 v 0.6 l -0.1,13.3 v 6.6 l -0.1,6.6 v 0.4 h -0.4 c -3.5,-0.1 -7,-0.1 -10.5,-0.2 -3.6,-0.1 -7.1,-0.1 -10.6,-0.2 z"
           id="path474"
           inkscape:connector-curvature="0"
           style="fill:#41beee" /></g><circle
         class="st45"
         cx="-152.8"
         cy="316"
         r="1.8"
         id="circle478"
         style="fill:#1a1a1a" /></g><polygon
       class="st42"
       points="-36.3,256.3 -111.5,183.3 -186.7,256.3 -203.8,256.3 -111.5,164 -19.1,256.3 "
       id="polygon482"
       style="fill:#768997" /><path
       class="st50"
       d="m -75.4,193.1 c 0,2 1.6,3.6 3.6,3.6 h 16.1 c 2,0 3.6,-1.6 3.6,-3.6 v -5.9 c 0,-2 -1.6,-3.6 -3.6,-3.6 h -16.1 c -2,0 -3.6,1.6 -3.6,3.6 z"
       id="path484"
       inkscape:connector-curvature="0"
       style="fill:#e4e7ea" /><g
       id="g498"><circle
         class="st46"
         cx="-111.5"
         cy="238.3"
         r="21.299999"
         id="circle486"
         style="fill:#9fd6ed" /><g
         id="g490"><rect
           x="-113.3"
           y="217"
           class="st42"
           width="3.5999999"
           height="42.700001"
           id="rect488"
           style="fill:#768997" /></g><g
         id="g494"><rect
           x="-132.8"
           y="236.5"
           class="st42"
           width="42.700001"
           height="3.5999999"
           id="rect492"
           style="fill:#768997" /></g><path
         class="st45"
         d="m -111.5,261.4 c -12.8,0 -23.1,-10.4 -23.1,-23.1 0,-12.8 10.4,-23.1 23.1,-23.1 12.8,0 23.1,10.4 23.1,23.1 0.1,12.8 -10.3,23.1 -23.1,23.1 z m 0,-42.6 c -10.8,0 -19.6,8.8 -19.6,19.6 0,10.8 8.8,19.6 19.6,19.6 10.8,0 19.6,-8.8 19.6,-19.6 0,-10.9 -8.8,-19.6 -19.6,-19.6 z"
         id="path496"
         inkscape:connector-curvature="0"
         style="fill:#1a1a1a" /></g><rect
       x="-118.9"
       y="315.60001"
       class="st45"
       width="70.900002"
       height="11.7"
       id="rect500"
       style="fill:#1a1a1a" /><g
       id="g508"><polygon
         class="st51"
         points="-179.4,347.9 -159,347.9 -162.6,354.6 -175.9,354.6 "
         id="polygon502"
         style="fill:#a57c52" /><path
         class="st52"
         d="m -161.6,340.4 c 0,-0.1 0,-0.3 0,-0.4 0,-1.8 -1.4,-3.3 -3.3,-3.7 -0.5,-0.6 -1.4,-1 -2.3,-1 -1.2,0 -2.3,0.7 -2.7,1.7 -0.9,-1 -2.2,-1.7 -3.8,-1.7 -2.6,0 -4.7,1.9 -4.7,4.2 0,0.5 0.1,1 0.3,1.5 -1,0.5 -1.6,1.3 -1.6,2.4 0,0.4 0.1,0.8 0.3,1.2 h 3.3 1.9 0.2 3.4 0.6 0.4 2.3 0.1 2.9 1.7 3.2 c 0.4,-0.4 0.6,-1 0.6,-1.5 0,-1.4 -1.2,-2.6 -2.8,-2.7 z"
         id="path504"
         inkscape:connector-curvature="0"
         style="fill:#8bc53f" /><rect
         x="-180.89999"
         y="344.5"
         class="st53"
         width="23.299999"
         height="4"
         id="rect506"
         style="fill:#c59b6d" /></g><g
       id="g516"><polygon
         class="st51"
         points="-126.7,347.9 -106.3,347.9 -109.9,354.6 -123.2,354.6 "
         id="polygon510"
         style="fill:#a57c52" /><path
         class="st52"
         d="m -108.9,340.4 c 0,-0.1 0,-0.3 0,-0.4 0,-1.8 -1.4,-3.3 -3.3,-3.7 -0.5,-0.6 -1.4,-1 -2.3,-1 -1.2,0 -2.3,0.7 -2.7,1.7 -0.9,-1 -2.2,-1.7 -3.8,-1.7 -2.6,0 -4.7,1.9 -4.7,4.2 0,0.5 0.1,1 0.3,1.5 -1,0.5 -1.6,1.3 -1.6,2.4 0,0.4 0.1,0.8 0.3,1.2 h 3.3 1.9 0.2 3.4 0.6 0.4 2.3 0.1 2.9 1.7 3.2 c 0.4,-0.4 0.6,-1 0.6,-1.5 0,-1.4 -1.2,-2.6 -2.8,-2.7 z"
         id="path512"
         inkscape:connector-curvature="0"
         style="fill:#8bc53f" /><rect
         x="-128.2"
         y="344.5"
         class="st53"
         width="23.299999"
         height="4"
         id="rect514"
         style="fill:#c59b6d" /></g></g></svg>