<?xml version="1.0" encoding="UTF-8" standalone="no"?>
<!-- Generator: Adobe Illustrator 19.1.0, SVG Export Plug-In . SVG Version: 6.00 Build 0)  -->

<svg
   xmlns:dc="http://purl.org/dc/elements/1.1/"
   xmlns:cc="http://creativecommons.org/ns#"
   xmlns:rdf="http://www.w3.org/1999/02/22-rdf-syntax-ns#"
   xmlns:svg="http://www.w3.org/2000/svg"
   xmlns="http://www.w3.org/2000/svg"
   xmlns:sodipodi="http://sodipodi.sourceforge.net/DTD/sodipodi-0.dtd"
   xmlns:inkscape="http://www.inkscape.org/namespaces/inkscape"
   version="1.1"
   id="Capa_1"
   x="0px"
   y="0px"
   viewBox="-290 111.6 355.00001 378.4"
   xml:space="preserve"
   sodipodi:docname="industry.svg"
   width="355"
   height="378.39999"
   inkscape:version="0.92.0 r"><metadata
     id="metadata19"><rdf:RDF><cc:Work
         rdf:about=""><dc:format>image/svg+xml</dc:format><dc:type
           rdf:resource="http://purl.org/dc/dcmitype/StillImage" /></cc:Work></rdf:RDF></metadata><defs
     id="defs17" /><sodipodi:namedview
     pagecolor="#ffffff"
     bordercolor="#666666"
     borderopacity="1"
     objecttolerance="10"
     gridtolerance="10"
     guidetolerance="10"
     inkscape:pageopacity="0"
     inkscape:pageshadow="2"
     inkscape:window-width="968"
     inkscape:window-height="1020"
     id="namedview15"
     showgrid="false"
     inkscape:zoom="0.62367866"
     inkscape:cx="177.5"
     inkscape:cy="189.2"
     inkscape:window-x="20"
     inkscape:window-y="40"
     inkscape:window-maximized="0"
     inkscape:current-layer="Capa_1" /><style
     type="text/css"
     id="style2">
	.st0{fill:#E4E7EA;}
	.st1{fill:#017ECE;}
	.st2{fill:#20A5E0;}
	.st3{fill:#41BEEE;}
	.st4{fill:#FFFFFF;}
	.st5{fill:#768997;}
</style><g
     id="XMLID_1325_"
     transform="translate(-11.7)"><path
       id="XMLID_1326_"
       class="st0"
       d="M -103.3,250 H 76.3 c 0.2,-1.7 0.4,-3.4 0.4,-5.1 0,-20.5 -16.6,-37.1 -37.1,-37.1 -5.7,0 -11.1,1.3 -16,3.6 C 22.7,191.7 6.4,176 -13.5,176 c -20.5,0 -37.1,16.6 -37.1,37.1 0,3.3 0.4,6.5 1.2,9.5 -5.1,-2.7 -11,-4.2 -17.1,-4.2 -18.7,-0.1 -34.2,13.7 -36.8,31.6 z"
       inkscape:connector-curvature="0"
       style="fill:#e4e7ea" /><path
       id="XMLID_1327_"
       class="st1"
       d="m -33.3,320 -98,53.4 13,116.6 h 195 V 320 l -110,60 z m 40,90 h 30 v 30 h -30 z m -80,30 h -30 v -30 h 30 z"
       inkscape:connector-curvature="0"
       style="fill:#017ece" /><polygon
       id="XMLID_1331_"
       class="st2"
       points="-197.8,410 -197.8,250 -251.6,250 -278.3,490 -197.8,490 -197.8,440 -213.3,440 -213.3,410 "
       style="fill:#20a5e0" /><polygon
       id="XMLID_1332_"
       class="st3"
       points="-197.8,410 -183.3,410 -183.3,440 -197.8,440 -197.8,490 -118.3,490 -131.3,373.4 -145,250 -197.8,250 "
       style="fill:#41beee" /><path
       id="XMLID_1333_"
       class="st0"
       d="m -83,184.6 c 0,-21.7 -17.6,-39.3 -39.3,-39.3 -6,0 -11.8,1.4 -16.9,3.8 -0.9,-20.9 -18.1,-37.5 -39.2,-37.5 -21.7,0 -39.3,17.6 -39.3,39.3 0,3.5 0.5,6.8 1.3,10.1 -5.4,-2.8 -11.6,-4.4 -18.1,-4.4 -19.7,0 -36,14.5 -38.8,33.5 h 190 c 0.2,-1.9 0.3,-3.7 0.3,-5.5 z"
       inkscape:connector-curvature="0"
       style="fill:#e4e7ea" /><rect
       id="XMLID_1334_"
       x="-103.3"
       y="410"
       class="st4"
       width="30"
       height="30"
       style="fill:#ffffff" /><rect
       id="XMLID_1335_"
       x="6.6999998"
       y="410"
       class="st4"
       width="30"
       height="30"
       style="fill:#ffffff" /><polygon
       id="XMLID_1336_"
       class="st4"
       points="-183.3,440 -183.3,410 -197.8,410 -213.3,410 -213.3,440 -197.8,440 "
       style="fill:#ffffff" /><polygon
       id="XMLID_1337_"
       class="st5"
       points="-133.3,220 -263.3,220 -263.3,250 -251.6,250 -197.8,250 -145,250 -133.3,250 "
       style="fill:#768997" /></g></svg>