<?xml version="1.0" encoding="UTF-8" standalone="no"?>
<!-- Generator: Adobe Illustrator 19.1.0, SVG Export Plug-In . SVG Version: 6.00 Build 0)  -->

<svg
   xmlns:dc="http://purl.org/dc/elements/1.1/"
   xmlns:cc="http://creativecommons.org/ns#"
   xmlns:rdf="http://www.w3.org/1999/02/22-rdf-syntax-ns#"
   xmlns:svg="http://www.w3.org/2000/svg"
   xmlns="http://www.w3.org/2000/svg"
   xmlns:sodipodi="http://sodipodi.sourceforge.net/DTD/sodipodi-0.dtd"
   xmlns:inkscape="http://www.inkscape.org/namespaces/inkscape"
   version="1.1"
   id="Ebene_1"
   x="0px"
   y="0px"
   viewBox="0 0 71.699997 129.7"
   xml:space="preserve"
   sodipodi:docname="qualle.svg"
   width="71.699997"
   height="129.7"
   inkscape:version="0.92.0 r"><metadata
     id="metadata127"><rdf:RDF><cc:Work
         rdf:about=""><dc:format>image/svg+xml</dc:format><dc:type
           rdf:resource="http://purl.org/dc/dcmitype/StillImage" /></cc:Work></rdf:RDF></metadata><defs
     id="defs125" /><sodipodi:namedview
     pagecolor="#ffffff"
     bordercolor="#666666"
     borderopacity="1"
     objecttolerance="10"
     gridtolerance="10"
     guidetolerance="10"
     inkscape:pageopacity="0"
     inkscape:pageshadow="2"
     inkscape:window-width="751"
     inkscape:window-height="480"
     id="namedview123"
     showgrid="false"
     inkscape:zoom="1.18"
     inkscape:cx="35.9"
     inkscape:cy="68.7"
     inkscape:window-x="0"
     inkscape:window-y="27"
     inkscape:window-maximized="0"
     inkscape:current-layer="Ebene_1" /><style
     type="text/css"
     id="style2">
	.st0{opacity:0.15;}
	.st1{fill:#1E1E1E;}
	.st2{fill:#303030;}
	.st3{opacity:0.9;fill:#9561AD;}
	.st4{opacity:0.9;fill:#69447A;}
	.st5{fill:#FFFFFF;}
	.st6{fill:#4F4F4D;}
	.st7{fill:#69447A;}
	.st8{fill:#D7CDAA;}
	.st9{fill:#F9BF12;}
</style><g
     id="g22"
     transform="translate(-64.1,-39)"><g
       id="g20"><g
         id="g12"><g
           class="st0"
           id="g6"
           style="opacity:0.15"><path
             d="m 118.8,71.1 c 0,0 -3.1,2.4 -13.1,1.1 C 96.3,71 93.5,67.5 93.5,67.5 l 1.4,-10.3 25.3,3.4 z"
             id="path4"
             inkscape:connector-curvature="0" /></g><g
           id="g10"><path
             class="st1"
             d="m 118.8,66.1 c 0,0 -3.1,2.4 -13.1,1.1 C 96.3,66 93.5,62.5 93.5,62.5 l 1.4,-10.3 25.3,3.4 z"
             id="path8"
             inkscape:connector-curvature="0"
             style="fill:#1e1e1e" /></g></g><g
         id="g18"><polygon
           points="120,55.7 106.8,58.1 94.7,52.3 106.5,59.3 "
           id="polygon14" /><polygon
           class="st2"
           points="135.8,52.7 106.8,58.1 80.3,45.3 110,39 "
           id="polygon16"
           style="fill:#303030" /></g></g></g><g
     id="g94"
     transform="translate(-64.1,-39)"><g
       id="g58"><g
         id="g28"><path
           class="st3"
           d="M 130,87.2 C 128.2,71.6 117.1,58.4 99.2,58.4 c -17.9,0 -29,13.2 -30.8,28.8 -1.8,15.6 5.4,23.3 5.4,23.3 h 25.4 25.4 c -0.1,0 7.2,-7.7 5.4,-23.3 z"
           id="path24"
           inkscape:connector-curvature="0"
           style="opacity:0.9;fill:#9561ad" /><path
           class="st4"
           d="m 99.2,58.4 c -3.5,0 -6.6,0.5 -9.6,1.4 22.9,1.8 34.7,17.8 35.7,29.5 1,11.7 -9.2,20.2 -9.2,20.2 l 1.8,0.9 h 6.5 c 0,0 7.3,-7.7 5.4,-23.3 C 128.2,71.6 117.1,58.4 99.2,58.4 Z"
           id="path26"
           inkscape:connector-curvature="0"
           style="opacity:0.9;fill:#69447a" /></g><g
         id="g56"><g
           id="g50"><g
             id="g38"><g
               id="g36"><circle
                 class="st5"
                 cx="111.4"
                 cy="81.800003"
                 r="4.3000002"
                 id="circle30"
                 style="fill:#ffffff" /><circle
                 class="st6"
                 cx="111.4"
                 cy="81.800003"
                 r="3"
                 id="circle32"
                 style="fill:#4f4f4d" /><circle
                 class="st5"
                 cx="112.5"
                 cy="80.900002"
                 r="1.1"
                 id="circle34"
                 style="fill:#ffffff" /></g></g><g
             id="g48"><g
               id="g46"><circle
                 class="st5"
                 cx="86.5"
                 cy="81.800003"
                 r="4.3000002"
                 id="circle40"
                 style="fill:#ffffff" /><circle
                 class="st6"
                 cx="86.5"
                 cy="81.800003"
                 r="3"
                 id="circle42"
                 style="fill:#4f4f4d" /><circle
                 class="st5"
                 cx="87.699997"
                 cy="80.900002"
                 r="1.1"
                 id="circle44"
                 style="fill:#ffffff" /></g></g></g><g
           id="g54"><path
             class="st6"
             d="m 87.4,93.4 c 6.7,5.1 16.1,4.2 22.9,0 0.6,-0.4 0,-1.3 -0.6,-0.9 -6.5,4 -15.4,4.9 -21.8,0 -0.5,-0.5 -1,0.4 -0.5,0.9 z"
             id="path52"
             inkscape:connector-curvature="0"
             style="fill:#4f4f4d" /></g></g></g><g
       id="g92"><path
         class="st7"
         d="m 130.3,105.1 c -3.8,0 -5.8,1.6 -7.3,2.8 -1.1,0.9 -1.7,1.3 -3.1,1.3 -1.4,0 -1.9,-0.4 -3.1,-1.3 -1.5,-1.2 -3.5,-2.8 -7.3,-2.8 -3.8,0 -5.8,1.6 -7.3,2.8 -1.1,0.9 -1.7,1.3 -3.1,1.3 -1.4,0 -1.9,-0.4 -3.1,-1.3 -1.5,-1.2 -3.5,-2.8 -7.3,-2.8 -3.8,0 -5.8,1.6 -7.3,2.8 -1.1,0.9 -1.7,1.3 -3.1,1.3 -1.4,0 -1.9,-0.4 -3.1,-1.3 -1.5,-1.2 -3.5,-2.8 -7.3,-2.8 v 0 c -0.1,0 -0.3,0 -0.4,0 -1.9,0 -3.4,1.5 -3.4,3.4 0,1.9 1.5,3.4 3.4,3.4 0.1,0 0.3,0 0.4,0 v 0 c 1.4,0 1.9,0.4 3.1,1.3 1.5,1.2 3.5,2.8 7.3,2.8 3.8,0 5.8,-1.6 7.3,-2.8 1.1,-0.9 1.7,-1.3 3.1,-1.3 1.4,0 1.9,0.4 3.1,1.3 1.5,1.2 3.5,2.8 7.3,2.8 3.8,0 5.8,-1.6 7.3,-2.8 1.1,-0.9 1.7,-1.3 3.1,-1.3 1.4,0 1.9,0.4 3.1,1.3 1.5,1.2 3.5,2.8 7.3,2.8 3.8,0 5.8,-1.6 7.3,-2.8 1.1,-0.9 1.6,-1.3 2.9,-1.3 0.1,0 0.1,0 0.2,0 1.9,0 3.4,-1.5 3.4,-3.4 0,-1.9 -1.5,-3.4 -3.4,-3.4 z"
         id="path60"
         inkscape:connector-curvature="0"
         style="fill:#69447a" /><g
         id="g90"><g
           id="g64"><path
             class="st7"
             d="m 67.5,162.7 -1.6,-0.4 c 0.3,-0.8 0.1,-2 -0.1,-3.2 -0.2,-1.4 -0.5,-3 -0.2,-4.5 0.2,-1.2 1,-2.3 1.8,-3.4 0.8,-1.2 1.7,-2.5 1.8,-3.8 0.1,-1.2 -0.5,-2.5 -1.1,-3.8 -0.6,-1.2 -1.1,-2.5 -1.2,-3.7 -0.1,-1.3 0.4,-2.7 0.8,-3.9 0.5,-1.4 0.9,-2.7 0.6,-3.7 -0.2,-0.7 -0.8,-1.4 -1.4,-2.1 -0.9,-1.1 -1.8,-2.2 -1.8,-3.4 0,-1.2 0.8,-2.3 1.7,-3.3 0.6,-0.8 1.2,-1.6 1.3,-2.3 0.1,-0.9 -0.3,-1.9 -0.6,-2.8 -0.4,-1.1 -0.9,-2.1 -0.6,-3.1 0.5,-2 1.6,-2.6 2.5,-3.2 0.7,-0.4 1.3,-0.8 1.7,-1.8 l 1.6,0.4 c -0.6,1.4 -1.5,2 -2.3,2.5 -0.8,0.5 -1.5,0.9 -1.9,2.4 -0.2,0.6 0.2,1.5 0.6,2.4 0.4,1 0.9,2.2 0.7,3.4 -0.2,1 -0.9,1.9 -1.6,2.8 -0.7,0.9 -1.4,1.8 -1.4,2.6 0,0.9 0.7,1.8 1.5,2.7 0.7,0.8 1.4,1.6 1.6,2.5 0.4,1.4 -0.1,2.9 -0.6,4.3 -0.4,1.2 -0.8,2.4 -0.8,3.6 0,1 0.6,2.1 1.1,3.3 0.7,1.4 1.3,2.9 1.2,4.4 -0.1,1.6 -1.1,3 -2,4.3 -0.7,1.1 -1.4,2.1 -1.6,3 -0.3,1.4 -0.1,2.8 0.2,4.1 0.4,1.3 0.6,2.6 0.1,3.7 z"
             id="path62"
             inkscape:connector-curvature="0"
             style="fill:#69447a" /></g><g
           id="g68"><path
             class="st7"
             d="m 78.7,162.8 -1.6,-0.5 c 0.1,-0.2 0,-0.9 -0.2,-1.5 -0.3,-1.5 -0.6,-3.4 -0.1,-5.6 0.2,-1 1,-2 1.7,-3 0.9,-1.2 1.8,-2.4 1.9,-3.6 0.1,-1 -0.5,-2.1 -1.1,-3.3 -0.6,-1.1 -1.2,-2.3 -1.3,-3.6 -0.1,-1.1 0.3,-2.3 0.7,-3.4 0.5,-1.3 0.9,-2.6 0.6,-3.7 -0.2,-0.8 -0.9,-1.6 -1.6,-2.4 -0.9,-1 -1.8,-2.1 -1.9,-3.3 -0.1,-1.3 0.8,-2.5 1.6,-3.7 0.6,-0.8 1.1,-1.6 1.2,-2.3 0.1,-1 -0.2,-2 -0.6,-3 -0.4,-1.2 -0.8,-2.3 -0.4,-3.3 0.7,-2.2 1.9,-2.8 2.9,-3.3 0.7,-0.4 1.4,-0.7 2,-1.8 l 1.5,0.6 c -0.8,1.4 -1.8,1.9 -2.6,2.3 -0.9,0.5 -1.6,0.8 -2.2,2.5 -0.2,0.7 0.1,1.6 0.4,2.6 0.4,1.1 0.8,2.3 0.6,3.5 -0.1,1 -0.8,1.9 -1.4,2.8 -0.7,1 -1.4,2 -1.4,3 0,0.8 0.8,1.7 1.6,2.7 0.8,0.9 1.6,1.8 1.9,2.9 0.4,1.4 -0.1,2.9 -0.6,4.3 -0.4,1.1 -0.7,2.1 -0.6,3 0.1,1 0.6,2.1 1.2,3.2 0.7,1.3 1.4,2.6 1.2,3.9 -0.1,1.6 -1.2,3 -2.1,4.2 -0.7,0.9 -1.3,1.8 -1.5,2.5 -0.5,2 -0.2,3.9 0.1,5.2 0.2,0.9 0.3,1.6 0.1,2.1 z"
             id="path66"
             inkscape:connector-curvature="0"
             style="fill:#69447a" /></g><g
           id="g72"><path
             class="st7"
             d="m 87.3,168.7 c -0.6,-0.2 -2.1,-1.2 -1.3,-3.8 0.2,-0.7 1.1,-1.3 1.9,-1.8 0.7,-0.5 1.5,-1 1.6,-1.4 0.1,-0.4 -0.4,-1.1 -0.8,-1.6 -0.5,-0.7 -1.1,-1.5 -1,-2.3 0.1,-0.8 0.8,-1.6 1.4,-2.3 0.4,-0.5 1,-1.1 0.9,-1.4 -0.1,-0.5 -0.7,-1.2 -1.3,-1.9 -1,-1.1 -2.1,-2.4 -2.3,-3.9 -0.2,-1.1 0.4,-2.3 1,-3.4 0.5,-1 1,-2 1,-2.9 0,-0.8 -0.6,-1.8 -1.2,-2.7 -0.7,-1.1 -1.4,-2.3 -1.3,-3.5 0.1,-1.4 1.1,-2.7 2,-3.7 0.6,-0.8 1.2,-1.5 1.4,-2.2 0.2,-0.6 -0.3,-1.4 -0.7,-2.2 -0.5,-0.9 -1.1,-2 -1,-3 0.1,-1 0.8,-1.9 1.4,-2.8 0.6,-0.8 1.2,-1.6 1.2,-2.3 0,-0.8 -0.7,-1.6 -1.4,-2.5 -0.7,-0.8 -1.4,-1.7 -1.4,-2.6 -0.2,-1.8 0.6,-2.6 1.2,-3.3 0.5,-0.6 0.9,-1 0.7,-2 L 91,109 c 0.2,1.5 -0.4,2.2 -1,2.9 -0.5,0.6 -1,1.1 -0.9,2.4 0,0.5 0.6,1.2 1.2,1.9 0.8,0.9 1.6,2 1.6,3.1 0,1.1 -0.7,2 -1.4,3 -0.6,0.8 -1.1,1.5 -1.2,2.2 -0.1,0.7 0.4,1.6 0.9,2.5 0.5,1 1.1,2 0.8,3 -0.2,0.9 -0.9,1.7 -1.7,2.6 -0.8,1 -1.7,2 -1.7,3.1 -0.1,0.9 0.5,1.8 1.1,2.8 0.6,1 1.3,2.1 1.3,3.2 0.1,1.2 -0.5,2.3 -1.1,3.4 -0.5,1 -1,2 -0.9,2.8 0.2,1.2 1.2,2.3 2,3.3 0.7,0.8 1.4,1.6 1.6,2.3 0.2,0.9 -0.5,1.7 -1.2,2.5 -0.5,0.6 -1,1.2 -1.1,1.6 0,0.4 0.4,1 0.8,1.5 0.6,0.8 1.2,1.7 1,2.6 -0.2,0.9 -1.3,1.6 -2.2,2.2 -0.6,0.4 -1.2,0.8 -1.3,1.1 -0.5,1.7 0.3,2.2 0.3,2.3 0,0 0,0 -0.1,0 z"
             id="path70"
             inkscape:connector-curvature="0"
             style="fill:#69447a" /></g><g
           id="g76"><path
             class="st7"
             d="m 103.7,165.7 c -0.4,-0.6 -0.9,-0.7 -1.6,-0.8 -0.9,-0.2 -2.1,-0.5 -2.9,-2 -0.4,-0.8 0,-1.7 0.3,-2.5 0.3,-0.7 0.6,-1.4 0.4,-1.9 -0.1,-0.4 -0.7,-0.9 -1.3,-1.3 -0.9,-0.7 -1.9,-1.4 -1.9,-2.4 -0.1,-1 0.8,-1.8 1.6,-2.6 0.5,-0.5 1.1,-1 1.2,-1.4 0.2,-0.9 -0.2,-1.9 -0.6,-3 -0.4,-1 -0.9,-2.1 -0.8,-3.2 0.1,-1 0.7,-2 1.3,-3 0.6,-1.1 1.3,-2.1 1.2,-3 -0.1,-0.8 -0.8,-1.7 -1.6,-2.6 -0.8,-1 -1.7,-2 -1.9,-3.1 -0.2,-1 0.1,-2.1 0.4,-3.2 0.3,-1.1 0.7,-2.2 0.4,-3.1 -0.2,-0.5 -0.8,-1 -1.5,-1.5 -0.9,-0.6 -1.8,-1.3 -1.9,-2.2 -0.1,-1 0.7,-1.9 1.5,-2.7 0.5,-0.5 0.9,-1 1,-1.4 0.1,-0.6 -0.4,-1.3 -0.8,-1.9 -0.5,-0.8 -1.1,-1.6 -0.8,-2.4 0.6,-1.7 1.7,-2 2.7,-2.2 0.6,-0.2 1.1,-0.3 1.5,-0.8 l 1.4,0.7 c -0.8,0.9 -1.7,1.2 -2.4,1.4 -0.8,0.2 -1.3,0.3 -1.6,1.3 -0.1,0.3 0.3,0.9 0.7,1.5 0.5,0.8 1.1,1.7 1,2.6 -0.1,0.7 -0.7,1.4 -1.3,2 -0.6,0.6 -1.2,1.3 -1.1,1.8 0,0.4 0.7,0.9 1.3,1.3 0.8,0.6 1.7,1.3 2,2.1 0.4,1.3 0,2.5 -0.4,3.8 -0.3,1 -0.6,1.9 -0.4,2.6 0.2,0.9 0.9,1.8 1.7,2.6 0.9,1 1.7,2.1 1.8,3.2 0.1,1.3 -0.6,2.5 -1.3,3.7 -0.5,0.9 -1,1.7 -1.1,2.5 -0.1,0.8 0.3,1.7 0.7,2.7 0.5,1.2 1,2.5 0.7,3.7 -0.2,0.8 -0.9,1.4 -1.6,2 -0.6,0.6 -1.3,1.2 -1.2,1.6 0,0.5 0.7,1 1.4,1.5 0.8,0.6 1.6,1.2 1.8,2 0.3,0.9 -0.1,1.8 -0.5,2.7 -0.3,0.6 -0.5,1.3 -0.4,1.6 0.4,0.9 1,1 1.8,1.2 0.8,0.2 1.8,0.4 2.6,1.4 z"
             id="path74"
             inkscape:connector-curvature="0"
             style="fill:#69447a" /></g><g
           id="g80"><path
             class="st7"
             d="m 111,158.5 c -0.2,-0.4 -0.8,-0.8 -1.4,-1.1 -1,-0.7 -2.1,-1.5 -2.2,-2.6 -0.1,-0.9 0.7,-1.7 1.5,-2.5 0.6,-0.6 1.2,-1.2 1.2,-1.7 0.1,-0.4 -0.4,-1.1 -0.9,-1.7 -0.6,-0.8 -1.2,-1.7 -1.1,-2.6 0.1,-0.9 0.9,-1.6 1.6,-2.3 0.6,-0.6 1.2,-1.1 1.2,-1.6 0,-0.6 -0.7,-1.3 -1.4,-2.1 -0.8,-0.9 -1.8,-2 -2.1,-3.2 -0.3,-1 0.1,-2.1 0.4,-3.2 0.3,-1 0.6,-2 0.4,-2.8 -0.2,-0.8 -1,-1.6 -1.7,-2.3 -0.9,-0.9 -1.9,-1.9 -2,-3.1 -0.2,-1.5 0.8,-2.9 1.8,-4 0.5,-0.6 0.9,-1.2 1.1,-1.7 0.1,-0.2 -0.5,-0.8 -0.7,-1.1 -0.5,-0.6 -1.1,-1.2 -1,-1.9 0.1,-0.7 1,-1.3 1.8,-1.8 0.3,-0.2 0.9,-0.6 1,-0.7 0,-0.2 -0.8,-0.7 -1.2,-1 -0.7,-0.5 -1.4,-0.9 -1.5,-1.5 -0.2,-1.2 0.6,-1.9 1.2,-2.3 0.6,-0.5 0.6,-0.5 0.5,-0.7 l 1.6,-0.5 c 0.5,1 -0.3,1.7 -0.8,2.1 -0.5,0.4 -0.8,0.7 -0.7,1.2 0.1,0.1 0.6,0.4 0.9,0.6 0.9,0.5 1.8,1.2 1.8,2.1 0,0.7 -0.8,1.2 -1.6,1.7 -0.4,0.3 -1.1,0.7 -1.2,0.9 0,0.2 0.4,0.7 0.7,0.9 0.6,0.7 1.3,1.5 1,2.3 -0.3,0.7 -0.8,1.3 -1.3,2 -0.8,1 -1.7,2.1 -1.5,3.2 0.1,0.8 0.9,1.5 1.7,2.4 0.9,0.9 1.7,1.8 2,2.9 0.3,1.1 -0.1,2.3 -0.4,3.4 -0.3,1 -0.6,1.9 -0.4,2.6 0.3,0.9 1.1,1.8 1.8,2.7 0.9,1 1.7,1.9 1.7,2.9 0,0.9 -0.8,1.7 -1.6,2.4 -0.6,0.6 -1.2,1.1 -1.3,1.6 -0.1,0.5 0.4,1.1 0.9,1.7 0.6,0.8 1.2,1.6 1.1,2.5 -0.1,0.9 -0.9,1.6 -1.6,2.4 -0.6,0.6 -1.2,1.2 -1.1,1.6 0,0.6 0.8,1.1 1.6,1.7 0.7,0.5 1.4,1 1.8,1.6 z"
             id="path78"
             inkscape:connector-curvature="0"
             style="fill:#69447a" /></g><g
           id="g84"><path
             class="st7"
             d="m 123.3,163.8 h -1.7 c 0,-0.4 -0.3,-0.6 -0.9,-1 -0.7,-0.4 -1.7,-1 -1.7,-2.3 0,-0.7 0.7,-1.4 1.4,-2 0.5,-0.4 1.1,-1 1.1,-1.3 0,-0.3 -0.6,-0.8 -1.1,-1.2 -0.7,-0.6 -1.4,-1.3 -1.4,-2 0,-1 0.9,-1.8 1.7,-2.4 0.3,-0.3 0.8,-0.7 0.8,-0.9 0,-0.3 -0.6,-0.9 -1.1,-1.5 -0.9,-1 -2,-2.3 -2.4,-3.8 -0.2,-1 0.2,-2.1 0.7,-3.1 0.4,-1 0.8,-1.9 0.7,-2.8 -0.1,-0.8 -0.8,-1.6 -1.5,-2.4 -0.8,-1 -1.7,-2 -1.8,-3.1 -0.1,-1.4 0.9,-2.7 1.7,-3.8 0.5,-0.7 1,-1.3 1.1,-1.8 0.1,-0.4 -0.4,-1.1 -0.8,-1.8 -0.6,-0.8 -1.2,-1.7 -1.2,-2.6 0,-0.9 0.6,-1.7 1.3,-2.5 0.5,-0.7 1.1,-1.4 1,-1.9 -0.1,-0.6 -0.8,-1.3 -1.5,-1.9 -0.7,-0.7 -1.5,-1.3 -1.7,-2.1 -0.3,-1.5 0.4,-2.3 1,-3 0.5,-0.5 0.8,-0.9 0.5,-1.6 l 1.6,-0.3 c 0.4,1.3 -0.3,2.1 -0.8,2.7 -0.5,0.6 -0.9,1 -0.7,2 0.1,0.4 0.7,0.9 1.3,1.5 0.8,0.8 1.8,1.6 1.9,2.6 0.1,1 -0.6,1.8 -1.3,2.7 -0.5,0.6 -1,1.3 -1,1.8 0,0.6 0.5,1.3 1,1.9 0.6,0.9 1.3,1.8 1,2.7 -0.2,0.7 -0.7,1.5 -1.3,2.2 -0.8,1 -1.5,2 -1.5,3.1 0.1,0.7 0.7,1.6 1.5,2.4 0.8,0.9 1.6,1.9 1.8,2.9 0.2,1.1 -0.3,2.3 -0.7,3.4 -0.4,0.9 -0.8,1.8 -0.6,2.5 0.3,1.2 1.2,2.3 2.1,3.2 0.8,0.9 1.4,1.6 1.4,2.3 0,0.6 -0.6,1.2 -1.3,1.7 -0.6,0.5 -1.2,1.1 -1.2,1.5 0,0.3 0.6,0.8 1,1.1 0.7,0.6 1.5,1.3 1.5,2.1 0,0.9 -0.8,1.6 -1.5,2.2 -0.4,0.3 -1,0.8 -1,1.1 0,0.7 0.4,0.9 1,1.2 0.7,0.6 1.6,1.1 1.6,2.3 z"
             id="path82"
             inkscape:connector-curvature="0"
             style="fill:#69447a" /></g><g
           id="g88"><path
             class="st7"
             d="m 133.1,158.6 c 0,-0.4 -0.5,-0.9 -1,-1.4 -0.8,-0.9 -1.8,-2 -1.9,-3.4 0,-0.9 0.5,-1.8 1.1,-2.7 0.5,-0.8 1.1,-1.7 1,-2.4 -0.1,-0.7 -0.8,-1.3 -1.5,-2.1 -0.8,-0.8 -1.6,-1.6 -1.8,-2.5 -0.2,-0.9 0.1,-1.9 0.4,-2.9 0.3,-0.9 0.6,-1.8 0.3,-2.3 -0.3,-0.5 -0.9,-1.1 -1.5,-1.6 -1.1,-1 -2.2,-2.1 -2.3,-3.4 0,-1.1 0.8,-2.1 1.6,-3.1 0.6,-0.8 1.2,-1.5 1.3,-2.3 0.1,-0.7 -0.3,-1.7 -0.7,-2.5 -0.5,-1 -1,-2.1 -0.8,-3.1 0.2,-1.2 1.2,-2.2 2,-3 0.7,-0.7 1.3,-1.5 1.4,-2 -0.1,-0.2 -0.7,-0.5 -1.1,-0.7 -0.7,-0.4 -1.5,-0.8 -1.6,-1.4 -0.2,-0.7 0.4,-1.4 0.9,-2 0.2,-0.2 0.5,-0.6 0.6,-0.8 -0.2,-0.1 -1,-0.2 -1.4,-0.3 -0.9,-0.1 -1.7,-0.2 -2.2,-0.6 -0.8,-0.8 -0.6,-1.7 -0.4,-2.3 0.2,-0.6 0.1,-0.6 0,-0.7 l 0.9,-1.1 c 1.1,0.6 0.9,1.5 0.7,2.1 -0.2,0.5 -0.2,0.9 0,1.2 0.2,0.1 0.7,0.1 1.1,0.2 1.1,0.1 2.3,0.2 2.8,1 0.4,0.7 -0.2,1.4 -0.7,2 -0.2,0.3 -0.7,0.9 -0.7,1 0.1,0.1 0.6,0.4 0.9,0.6 0.9,0.5 1.8,1 1.8,1.9 -0.1,1 -0.9,1.8 -1.7,2.7 -0.7,0.8 -1.5,1.6 -1.7,2.5 -0.1,0.7 0.3,1.5 0.7,2.4 0.5,1 1,2.1 0.8,3.1 -0.2,1 -0.9,1.9 -1.6,2.8 -0.7,0.9 -1.3,1.7 -1.3,2.4 0,0.9 0.9,1.7 1.9,2.6 0.7,0.6 1.4,1.3 1.8,2 0.5,1 0.2,2.1 -0.2,3.2 -0.3,0.8 -0.5,1.6 -0.4,2.3 0.2,0.6 0.8,1.2 1.5,1.9 0.9,0.9 1.8,1.7 1.9,2.8 0.1,1.1 -0.6,2.2 -1.2,3.1 -0.5,0.7 -1,1.5 -0.9,2 0.1,1 0.9,1.9 1.6,2.7 0.6,0.7 1.2,1.4 1.3,2.1 z"
             id="path86"
             inkscape:connector-curvature="0"
             style="fill:#69447a" /></g></g></g></g><g
     id="g120"
     transform="translate(-64.1,-39)"><g
       id="g100"><line
         class="st8"
         x1="89.099998"
         y1="49"
         x2="87.800003"
         y2="58.799999"
         id="line96"
         style="fill:#d7cdaa" /><rect
         x="88.099998"
         y="48.900002"
         transform="matrix(0.9912,0.1321,-0.1321,0.9912,7.8911,-11.2138)"
         class="st9"
         width="0.69999999"
         height="9.8999996"
         id="rect98"
         style="fill:#f9bf12" /></g><g
       id="g104"><path
         class="st9"
         d="m 87.5,60.7 c 0,0 -1.3,-0.2 -1.5,1.4 -0.1,0.9 -0.5,2.6 0.9,3.5 1.4,0.8 2.3,0.6 2.7,0.4 0,0 -0.9,0 -0.8,-1.4 0.1,-0.4 0.4,-2 0.3,-2.6 -0.3,-1.4 -1.3,-1.3 -1.6,-1.3 z"
         id="path102"
         inkscape:connector-curvature="0"
         style="fill:#f9bf12" /></g><g
       id="g118"><g
         class="st0"
         id="g110"
         style="opacity:0.15"><g
           id="g108"><circle
             cx="87.699997"
             cy="59.799999"
             r="1.5"
             id="circle106" /></g></g><g
         id="g116"><g
           id="g114"><circle
             class="st9"
             cx="87.699997"
             cy="59.599998"
             r="1.5"
             id="circle112"
             style="fill:#f9bf12" /></g></g></g></g></svg>