<?xml version="1.0" encoding="utf-8"?>
<!-- Generator: Adobe Illustrator 19.0.0, SVG Export Plug-In . SVG Version: 6.00 Build 0)  -->
<svg version="1.1" id="Ebene_1" xmlns="http://www.w3.org/2000/svg" xmlns:xlink="http://www.w3.org/1999/xlink" x="0px" y="0px"
	 viewBox="-205 297 179.7 131" style="enable-background:new -205 297 179.7 131;" xml:space="preserve">
<style type="text/css">
	.st0{fill:#e3ba5c;}
</style>
<g>
	<path class="st0" d="M-109.4,387.9l-17.3,19.1c-1,1.2-2.2,0.7-2.5,0.7c-0.3-0.2-1.5-0.7-1.5-2.2v-20.9h15.4v-5.1h-16.5l-40.8-62.4
		c-2-3-5.1-4.6-8.6-4.6h-2v5.1h2c1.8,0,3.3,0.8,4.3,2.3l41.1,62.9v22.7c0,3.2,1.8,5.8,4.8,7c0.8,0.3,1.8,0.5,2.7,0.5
		c2,0,4-0.8,5.5-2.5l17.3-19.1L-109.4,387.9z"/>
	<path class="st0" d="M-143.6,348.4l16.1,28.4c2.8,4.8,7.8,7.8,13.4,7.8h38.8c5.5,0,10.6-3,13.4-7.8l16.1-28.4H-143.6L-143.6,348.4z
		"/>
	<g>
		<path class="st0" d="M-114.5,376.6l-16.1-28.4h-13l16.1,28.4c2.8,4.8,7.8,7.8,13.4,7.8h12.9C-106.6,384.4-111.7,381.4-114.5,376.6
			z"/>
		<path class="st0" d="M-43,348.4h-103c-1.5,0-2.7-1.2-2.7-2.7l0,0c0-1.5,1.2-2.7,2.7-2.7h103c1.5,0,2.7,1.2,2.7,2.7l0,0
			C-40.4,347.3-41.5,348.4-43,348.4z"/>
	</g>
	<path class="st0" d="M-182.2,317.4h-5.1c-1.5,0-2.7-1.2-2.7-2.7l0,0c0-1.5,1.2-2.7,2.7-2.7h5.1c1.5,0,2.7,1.2,2.7,2.7l0,0
		C-179.6,316.3-180.7,317.4-182.2,317.4z"/>
	<path class="st0" d="M-75.2,379.3h-6.5c-1.5,0-2.7-1.2-2.7-2.7s1.2-2.7,2.7-2.7h6.5c1.8,0,3.5-1,4.5-2.7l3.6-6.5
		c0.7-1.2,2.3-1.7,3.5-1c1.2,0.7,1.7,2.3,1,3.5l-3.6,6.5C-68.1,377.3-71.6,379.3-75.2,379.3z"/>
	<path class="st0" d="M-60.5,361.2c-0.5,0-0.8-0.2-1.3-0.3c-1.2-0.7-1.7-2.3-1-3.5l1.5-2.7c0.7-1.2,2.3-1.7,3.5-1
		c1.2,0.7,1.7,2.3,1,3.5l-1.5,2.7C-58.6,360.9-59.5,361.2-60.5,361.2z"/>
	<path class="st0" d="M-89.5,371.5c-11.4,0-20.6,9.3-20.6,20.6c0,11.3,9.3,20.6,20.6,20.6s20.6-9.3,20.6-20.6
		C-68.9,380.8-78,371.5-89.5,371.5z M-89.5,405c-7.1,0-12.9-5.8-12.9-12.9c0-7.1,5.8-12.9,12.9-12.9c7.1,0,12.9,5.8,12.9,12.9
		C-76.6,399.2-82.3,405-89.5,405z"/>
</g>
</svg>
