<?xml version="1.0" encoding="UTF-8" standalone="no"?>
<!-- Generator: Adobe Illustrator 19.1.0, SVG Export Plug-In . SVG Version: 6.00 Build 0)  -->

<svg
   xmlns:dc="http://purl.org/dc/elements/1.1/"
   xmlns:cc="http://creativecommons.org/ns#"
   xmlns:rdf="http://www.w3.org/1999/02/22-rdf-syntax-ns#"
   xmlns:svg="http://www.w3.org/2000/svg"
   xmlns="http://www.w3.org/2000/svg"
   xmlns:sodipodi="http://sodipodi.sourceforge.net/DTD/sodipodi-0.dtd"
   xmlns:inkscape="http://www.inkscape.org/namespaces/inkscape"
   version="1.1"
   id="Ebene_1"
   x="0px"
   y="0px"
   viewBox="0 0 119.5349 117.5"
   xml:space="preserve"
   sodipodi:docname="octopus.svg"
   width="119.5349"
   height="117.5"
   inkscape:version="0.92.0 r"><metadata
     id="metadata89"><rdf:RDF><cc:Work
         rdf:about=""><dc:format>image/svg+xml</dc:format><dc:type
           rdf:resource="http://purl.org/dc/dcmitype/StillImage" /></cc:Work></rdf:RDF></metadata><defs
     id="defs87" /><sodipodi:namedview
     pagecolor="#ffffff"
     bordercolor="#666666"
     borderopacity="1"
     objecttolerance="10"
     gridtolerance="10"
     guidetolerance="10"
     inkscape:pageopacity="0"
     inkscape:pageshadow="2"
     inkscape:window-width="751"
     inkscape:window-height="480"
     id="namedview85"
     showgrid="false"
     inkscape:zoom="1.18"
     inkscape:cx="64.612188"
     inkscape:cy="57.8"
     inkscape:window-x="0"
     inkscape:window-y="27"
     inkscape:window-maximized="0"
     inkscape:current-layer="Ebene_1" /><style
     type="text/css"
     id="style2">
	.st0{fill:#F1D38D;}
	.st1{fill:#F5AA3B;}
	.st2{fill:#FFFFFF;}
	.st3{fill:#CCCECF;}
	.st4{fill:#723E2B;}
	.st5{fill:none;stroke:#723E2B;stroke-width:3;stroke-miterlimit:10;}
</style><g
     id="g82"
     transform="translate(-35.387812,-40.3)"><g
       id="g74"><g
         id="g8"><path
           class="st0"
           d="m 127.3,113.6 c 11.7,-5.9 16.3,-5.6 18.1,-4.9 0.7,0.3 1.6,0.8 2.2,2.7 0.7,2 2.8,3 4.8,2.3 2,-0.7 3,-2.8 2.3,-4.8 -1.2,-3.6 -3.4,-6 -6.5,-7.2 -5.3,-2.2 -13,-0.5 -24.2,5.1 -4.3,2.2 -8,2.7 -11.1,1.5 -3.2,-1.2 -5.1,-4 -6.1,-5.6 C 113.3,93 127,93 127,72.2 127,54.6 112.7,40.3 95.1,40.3 v 84.5 c 0.7,1.8 1.5,3.5 2.5,4.9 2.9,4 6.9,6.4 11.9,7.1 13.3,1.7 13.9,4.1 14.4,5.8 0,0.1 0.9,5.6 -3.9,7 -2.8,0.8 -5.2,0.1 -6.3,-1 -0.7,-0.7 -0.9,-1.5 -0.6,-2.6 0.5,-2 -0.6,-4 -2.6,-4.6 -2,-0.5 -4,0.6 -4.6,2.6 -1,3.7 0,7.4 2.7,10 2.3,2.2 5.6,3.4 9.1,3.4 1.5,0 3,-0.2 4.5,-0.7 8.3,-2.5 10.3,-11.1 9,-16.1 -1.5,-5.7 -5.3,-9.4 -20.7,-11.4 -2.9,-0.4 -5.1,-1.7 -6.8,-4 -2.1,-2.9 -3,-7.1 -3.2,-11.4 4.5,6.9 9.7,11 15.4,12.2 7,1.5 11.2,0.9 15,0.3 2.9,-0.4 5.4,-0.8 9.1,-0.3 3.6,0.5 5.5,3.9 5.7,6.9 0.1,1.5 0,6.5 -6.2,8.3 -2,0.6 -3.1,2.6 -2.6,4.6 0.5,1.6 2,2.7 3.6,2.7 0.3,0 0.7,0 1,-0.1 7.6,-2.2 12.2,-8.5 11.6,-16.1 -0.5,-7.2 -5.5,-12.9 -12.2,-13.8 -4.8,-0.6 -8.2,-0.1 -11.2,0.3 -3.6,0.5 -6.7,1 -12.3,-0.2 -1.9,-0.4 -3.7,-1.5 -5.4,-2.9 1.4,0.3 2.7,0.5 4.2,0.5 3.5,0.3 7.2,-0.7 11.1,-2.6 z"
           id="path4"
           inkscape:connector-curvature="0"
           style="fill:#f1d38d" /><path
           class="st1"
           d="m 63.2,72.2 c 0,19.7 14.1,21.5 19.6,31.6 -1.1,1.6 -2.9,3.6 -5.4,4.6 -3.1,1.2 -6.8,0.7 -11.1,-1.5 -11.2,-5.7 -18.9,-7.3 -24.2,-5.1 -3.1,1.2 -5.3,3.7 -6.5,7.2 -0.7,2 0.4,4.1 2.3,4.8 2,0.7 4.1,-0.4 4.8,-2.3 0.7,-1.9 1.5,-2.5 2.2,-2.7 1.7,-0.7 6.4,-1 18.1,4.9 3.9,1.9 7.5,2.9 11,2.9 1.4,0 2.8,-0.2 4.2,-0.5 -1.7,1.4 -3.5,2.4 -5.4,2.9 -5.6,1.2 -8.7,0.8 -12.3,0.2 -3,-0.4 -6.4,-0.9 -11.2,-0.3 -6.6,0.9 -11.6,6.6 -12.2,13.8 -0.5,7.6 4,13.9 11.6,16.1 0.3,0.1 0.7,0.1 1,0.1 1.6,0 3.1,-1.1 3.6,-2.7 0.6,-2 -0.6,-4.1 -2.6,-4.6 -6.2,-1.8 -6.3,-6.8 -6.2,-8.3 0.2,-3 2.1,-6.4 5.7,-6.9 3.7,-0.5 6.2,-0.1 9.1,0.3 3.8,0.6 8,1.2 15,-0.3 5.7,-1.2 10.8,-5.4 15.4,-12.2 -0.3,4.3 -1.2,8.5 -3.2,11.4 -1.6,2.3 -3.8,3.6 -6.8,4 -11.6,1.5 -18.7,3.8 -20.7,11.4 -1.3,5 0.6,13.6 9,16.1 1.5,0.5 3,0.7 4.5,0.7 3.5,0 6.8,-1.2 9.1,-3.4 2.7,-2.6 3.7,-6.2 2.7,-10 -0.5,-2 -2.6,-3.2 -4.6,-2.6 -2,0.5 -3.2,2.6 -2.6,4.6 0.3,1.1 0.1,1.9 -0.6,2.6 -1.1,1.1 -3.5,1.8 -6.3,1 -4.8,-1.5 -3.9,-7 -3.9,-7 0.5,-1.7 1.1,-4.1 14.4,-5.8 5.1,-0.6 9.1,-3 11.9,-7.1 1,-1.4 1.9,-3.1 2.5,-4.9 V 40.3 c -17.6,0 -31.9,14.3 -31.9,31.9 z"
           id="path6"
           inkscape:connector-curvature="0"
           style="fill:#f5aa3b" /></g><g
         id="g26"><ellipse
           class="st2"
           cx="87.199997"
           cy="99.099998"
           rx="2.8"
           ry="5.3000002"
           id="ellipse10"
           style="fill:#ffffff" /><ellipse
           class="st2"
           cx="103.1"
           cy="99.099998"
           rx="2.8"
           ry="5.3000002"
           id="ellipse12"
           style="fill:#ffffff" /><g
           id="g18"><line
             class="st3"
             x1="87.199997"
             y1="94.400002"
             x2="87.199997"
             y2="103.4"
             id="line14"
             style="fill:#cccecf" /><path
             class="st4"
             d="m 87.2,94.4 c 0,0 0.3,0.6 0.5,1.4 0.2,0.8 0.4,2 0.4,3.1 0,1.1 -0.1,2.3 -0.4,3.1 -0.2,0.8 -0.5,1.4 -0.5,1.4 0,0 -0.3,-0.6 -0.5,-1.4 -0.2,-0.8 -0.4,-2 -0.4,-3.1 0,-1.1 0.1,-2.3 0.4,-3.1 0.2,-0.8 0.5,-1.4 0.5,-1.4 z"
             id="path16"
             inkscape:connector-curvature="0"
             style="fill:#723e2b" /></g><g
           id="g24"><line
             class="st3"
             x1="103.1"
             y1="94.400002"
             x2="103.1"
             y2="103.4"
             id="line20"
             style="fill:#cccecf" /><path
             class="st4"
             d="m 103.1,94.4 c 0,0 0.3,0.6 0.5,1.4 0.2,0.8 0.4,2 0.4,3.1 0,1.1 -0.1,2.3 -0.4,3.1 -0.2,0.8 -0.5,1.4 -0.5,1.4 0,0 -0.3,-0.6 -0.5,-1.4 -0.2,-0.8 -0.4,-2 -0.4,-3.1 0,-1.1 0.1,-2.3 0.4,-3.1 0.2,-0.8 0.5,-1.4 0.5,-1.4 z"
             id="path22"
             inkscape:connector-curvature="0"
             style="fill:#723e2b" /></g></g><g
         id="g72"><ellipse
           transform="matrix(0.8197,0.5728,-0.5728,0.8197,44.9588,-47.4559)"
           class="st2"
           cx="97.900002"
           cy="47.700001"
           rx="3.3"
           ry="1"
           id="ellipse28"
           style="fill:#ffffff" /><ellipse
           transform="matrix(0.8197,0.5728,-0.5728,0.8197,44.5049,-50.1898)"
           class="st2"
           cx="102"
           cy="45.599998"
           rx="3.3"
           ry="1"
           id="ellipse30"
           style="fill:#ffffff" /><ellipse
           transform="matrix(0.8197,0.5728,-0.5728,0.8197,52.2137,-48.7493)"
           class="st2"
           cx="103.5"
           cy="58.599998"
           rx="3.3"
           ry="1"
           id="ellipse32"
           style="fill:#ffffff" /><ellipse
           transform="matrix(0.8198,0.5727,-0.5727,0.8198,47.7007,-52.2021)"
           class="st2"
           cx="106.8"
           cy="49.700001"
           rx="1.8"
           ry="1"
           id="ellipse34"
           style="fill:#ffffff" /><ellipse
           transform="matrix(-0.8197,-0.5728,0.5728,-0.8197,140.113,134.5095)"
           class="st2"
           cx="91.199997"
           cy="45.200001"
           rx="1.7"
           ry="1.5"
           id="ellipse36"
           style="fill:#ffffff" /><ellipse
           transform="matrix(0.8198,0.5727,-0.5727,0.8198,50.3231,-50.8001)"
           class="st2"
           cx="105.9"
           cy="54.5"
           rx="3.3"
           ry="0.69999999"
           id="ellipse38"
           style="fill:#ffffff" /><ellipse
           transform="matrix(0.8198,0.5726,-0.5726,0.8198,52.2052,-54.8848)"
           class="st2"
           cx="113.3"
           cy="55.5"
           rx="1.9"
           ry="1.6"
           id="ellipse40"
           style="fill:#ffffff" /><ellipse
           transform="matrix(0.8198,0.5727,-0.5727,0.8198,55.5365,-52.453)"
           class="st2"
           cx="111.1"
           cy="62"
           rx="2.7"
           ry="1.4"
           id="ellipse42"
           style="fill:#ffffff" /><ellipse
           transform="matrix(0.8198,0.5727,-0.5727,0.8198,53.1485,-44.8644)"
           class="st2"
           cx="97.900002"
           cy="62"
           rx="2.7"
           ry="1.4"
           id="ellipse44"
           style="fill:#ffffff" /><ellipse
           transform="matrix(-0.8197,-0.5729,0.5729,-0.8197,150.687,153.1449)"
           class="st2"
           cx="99.400002"
           cy="52.900002"
           rx="2.9000001"
           ry="1.5"
           id="ellipse46"
           style="fill:#ffffff" /><ellipse
           transform="matrix(-0.8195,-0.5731,0.5731,-0.8195,140.2809,144.8761)"
           class="st2"
           cx="93"
           cy="50.299999"
           rx="1.2"
           ry="0.69999999"
           id="ellipse48"
           style="fill:#ffffff" /><ellipse
           transform="matrix(0.8196,0.573,-0.573,0.8196,61.6857,-57.1719)"
           class="st2"
           cx="121.6"
           cy="69.400002"
           rx="2.2"
           ry="0.80000001"
           id="ellipse50"
           style="fill:#ffffff" /><ellipse
           transform="matrix(0.8197,0.5728,-0.5728,0.8197,44.1528,-41.7556)"
           class="st2"
           cx="88.400002"
           cy="49.299999"
           rx="2.2"
           ry="0.80000001"
           id="ellipse52"
           style="fill:#ffffff" /><ellipse
           transform="matrix(0.8197,0.5728,-0.5728,0.8197,55.078,-48.3132)"
           class="st2"
           cx="104.3"
           cy="63.299999"
           rx="2.2"
           ry="0.80000001"
           id="ellipse54"
           style="fill:#ffffff" /><ellipse
           transform="matrix(0.8198,0.5726,-0.5726,0.8198,56.1191,-56.7148)"
           class="st2"
           cx="118.2"
           cy="60.799999"
           rx="1.3"
           ry="0.69999999"
           id="ellipse56"
           style="fill:#ffffff" /><ellipse
           transform="matrix(-0.8197,-0.5727,0.5727,-0.8197,140.8115,158.4895)"
           class="st2"
           cx="95.300003"
           cy="57.099998"
           rx="1.4"
           ry="0.80000001"
           id="ellipse58"
           style="fill:#ffffff" /><ellipse
           transform="matrix(-0.8195,-0.5731,0.5731,-0.8195,164.6786,184.5628)"
           class="st2"
           cx="111.4"
           cy="66.300003"
           rx="1.4"
           ry="0.80000001"
           id="ellipse60"
           style="fill:#ffffff" /><ellipse
           transform="matrix(-0.8197,-0.5728,0.5728,-0.8197,184.3246,187.1923)"
           class="st2"
           cx="121.6"
           cy="64.599998"
           rx="1.4"
           ry="0.80000001"
           id="ellipse62"
           style="fill:#ffffff" /><ellipse
           transform="matrix(-0.8197,-0.5727,0.5727,-0.8197,181.0206,169.0809)"
           class="st2"
           cx="117.1"
           cy="56.099998"
           rx="1.4"
           ry="0.80000001"
           id="ellipse64"
           style="fill:#ffffff" /><ellipse
           transform="matrix(-0.8197,-0.5727,0.5727,-0.8197,172.7971,192.403)"
           class="st2"
           cx="116.7"
           cy="69"
           rx="1.4"
           ry="0.80000001"
           id="ellipse66"
           style="fill:#ffffff" /><ellipse
           transform="matrix(0.8197,0.5728,-0.5728,0.8197,58.1066,-55.4471)"
           class="st2"
           cx="117.1"
           cy="64.599998"
           rx="2.2"
           ry="1.6"
           id="ellipse68"
           style="fill:#ffffff" /><ellipse
           transform="matrix(0.8197,0.5728,-0.5728,0.8197,48.8625,-54.9319)"
           class="st2"
           cx="111.7"
           cy="50.200001"
           rx="2.2"
           ry="1.6"
           id="ellipse70"
           style="fill:#ffffff" /></g></g><g
       id="g80"><circle
         class="st5"
         cx="83.599998"
         cy="98.699997"
         r="11.9"
         id="circle76"
         style="fill:none;stroke:#723e2b;stroke-width:3;stroke-miterlimit:10" /><circle
         class="st5"
         cx="107.4"
         cy="99.599998"
         r="11.9"
         id="circle78"
         style="fill:none;stroke:#723e2b;stroke-width:3;stroke-miterlimit:10" /></g></g></svg>