<?xml version="1.0" encoding="utf-8"?>
<!-- Generator: Adobe Illustrator 19.1.0, SVG Export Plug-In . SVG Version: 6.00 Build 0)  -->
<svg version="1.1" id="Ebene_1" xmlns="http://www.w3.org/2000/svg" xmlns:xlink="http://www.w3.org/1999/xlink" x="0px" y="0px"
	 viewBox="0 0 20 20" style="enable-background:new 0 0 20 20;" xml:space="preserve">
<style type="text/css">
	.st0{fill:url(#SVGID_1_);}
	.st1{fill:#F5AA3B;}
	.st2{fill:#0072B8;}
	.st3{fill:#19A6ED;}
	.st4{fill:#0065A8;}
	.st5{fill:#FFB37F;}
	.st6{fill:#FFC695;}
	.st7{fill:#F29555;}
	.st8{fill:#91C7CE;}
	.st9{fill:#F0F8FC;}
	.st10{fill:#ACD2EA;}
	.st11{opacity:0.5;fill:#4198C4;}
	.st12{fill:#74320A;}
	.st13{fill:#333331;}
	.st14{fill:#3281A0;}
	.st15{fill:#E4E7EA;}
	.st16{fill:#017ECE;}
	.st17{fill:#FFB27A;}
	.st18{fill:#ADA9A7;}
	.st19{fill:#D6AE90;}
	.st20{fill:#464655;}
	.st21{fill:#8C888A;}
	.st22{fill:#41BEEE;}
	.st23{fill:none;stroke:#424A60;stroke-linecap:round;stroke-miterlimit:10;}
	.st24{fill:#20A5E0;}
	.st25{fill:#FFFFFF;}
	.st26{opacity:0.2;enable-background:new    ;}
	.st27{fill:#CFC1A7;}
	.st28{fill:#A4A9AD;}
	.st29{opacity:0.1;enable-background:new    ;}
	.st30{fill:#A9E0F0;}
	.st31{fill:#D7DEED;}
	.st32{fill:#C7CFE2;}
	.st33{fill:#707487;}
	.st34{fill:url(#SVGID_2_);}
	.st35{fill:#E7EBF4;}
	.st36{fill:#5B5D6E;}
	.st37{fill:#F1D38D;}
</style>
<g>
	<path class="st2" d="M9.1,5.2C8.1,5.2,7.3,6,7.3,7v5.5l0.6,0V7c0-0.7,0.5-1.2,1.2-1.2c0.7,0,1.2,0.5,1.2,1.2c0,0,0,0,0,0v0l0.3-1
		C10.3,5.5,9.7,5.2,9.1,5.2z"/>
	<path class="st3" d="M12.1,5.2c-1,0-1.8,0.8-1.8,1.8v1.8h-3v0.6h3v0.9h-3v0.6h3v1.6h0.6V7c0-0.7,0.5-1.2,1.2-1.2
		c0.7,0,1.2,0.5,1.2,1.2c0,0.2,0.1,0.3,0.3,0.3c0.2,0,0.3-0.1,0.3-0.3C13.9,6,13.1,5.2,12.1,5.2z"/>
	<path class="st4" d="M17.6,11.7c-0.3,0.2-0.9,0.4-1.5,0.4c-0.6,0-1.1-0.2-1.5-0.4c-0.3,0.2-0.9,0.4-1.5,0.4c-0.6,0-1.1-0.2-1.5-0.4
		c-0.3,0.2-0.9,0.4-1.5,0.4c-0.6,0-1.1-0.2-1.5-0.4C8.5,12,8,12.1,7.4,12.1c-0.6,0-1.1-0.2-1.5-0.4c-0.3,0.2-0.9,0.4-1.5,0.4
		c-0.6,0-1.1-0.2-1.5-0.4c-0.3,0.2-0.9,0.4-1.5,0.4v1.3h17.5v-1.3C18.5,12.1,18,12,17.6,11.7z"/>
</g>
</svg>
