<?xml version="1.0" encoding="UTF-8" standalone="no"?>
<!-- Generator: Adobe Illustrator 19.1.0, SVG Export Plug-In . SVG Version: 6.00 Build 0)  -->

<svg
   xmlns:dc="http://purl.org/dc/elements/1.1/"
   xmlns:cc="http://creativecommons.org/ns#"
   xmlns:rdf="http://www.w3.org/1999/02/22-rdf-syntax-ns#"
   xmlns:svg="http://www.w3.org/2000/svg"
   xmlns="http://www.w3.org/2000/svg"
   xmlns:sodipodi="http://sodipodi.sourceforge.net/DTD/sodipodi-0.dtd"
   xmlns:inkscape="http://www.inkscape.org/namespaces/inkscape"
   version="1.1"
   id="Ebene_1"
   x="0px"
   y="0px"
   viewBox="0 0 6.3126793 6.4000001"
   xml:space="preserve"
   sodipodi:docname="raincloud.svg"
   width="6.3126793"
   height="6.4000001"
   inkscape:version="0.92pre3 r"><metadata
     id="metadata29"><rdf:RDF><cc:Work
         rdf:about=""><dc:format>image/svg+xml</dc:format><dc:type
           rdf:resource="http://purl.org/dc/dcmitype/StillImage" /></cc:Work></rdf:RDF></metadata><defs
     id="defs27" /><sodipodi:namedview
     pagecolor="#ffffff"
     bordercolor="#666666"
     borderopacity="1"
     objecttolerance="10"
     gridtolerance="10"
     guidetolerance="10"
     inkscape:pageopacity="0"
     inkscape:pageshadow="2"
     inkscape:window-width="751"
     inkscape:window-height="480"
     id="namedview25"
     showgrid="false"
     inkscape:zoom="11.8"
     inkscape:cx="2.9"
     inkscape:cy="3.6"
     inkscape:window-x="367"
     inkscape:window-y="261"
     inkscape:window-maximized="0"
     inkscape:current-layer="Ebene_1" /><style
     type="text/css"
     id="style2">
	.st0{fill:url(#SVGID_1_);}
	.st1{fill:#F5AA3B;}
	.st2{fill:#0072B8;}
	.st3{fill:#19A6ED;}
	.st4{fill:#0065A8;}
	.st5{fill:#FFB37F;}
	.st6{fill:#FFC695;}
	.st7{fill:#F29555;}
	.st8{fill:#91C7CE;}
	.st9{fill:#F0F8FC;}
	.st10{fill:#ACD2EA;}
	.st11{opacity:0.5;fill:#4198C4;}
	.st12{fill:#74320A;}
	.st13{fill:#333331;}
	.st14{fill:#3281A0;}
	.st15{fill:#E4E7EA;}
	.st16{fill:#017ECE;}
	.st17{fill:#FFB27A;}
	.st18{fill:#ADA9A7;}
	.st19{fill:#D6AE90;}
	.st20{fill:#464655;}
	.st21{fill:#8C888A;}
	.st22{fill:#41BEEE;}
	.st23{fill:none;stroke:#424A60;stroke-linecap:round;stroke-miterlimit:10;}
	.st24{fill:#20A5E0;}
	.st25{fill:#FFFFFF;}
	.st26{opacity:0.2;enable-background:new    ;}
	.st27{fill:#CFC1A7;}
	.st28{fill:#A4A9AD;}
	.st29{opacity:0.1;enable-background:new    ;}
	.st30{fill:#A9E0F0;}
	.st31{fill:#D7DEED;}
	.st32{fill:#C7CFE2;}
	.st33{fill:#707487;}
	.st34{fill:url(#SVGID_2_);}
	.st35{fill:#E7EBF4;}
	.st36{fill:#5B5D6E;}
	.st37{fill:#F1D38D;}
</style><g
     id="g22"
     transform="translate(-7.1,-7.2)"><g
       id="g20"><g
         id="g18"><g
           id="g16"><path
             class="st22"
             d="m 12.2,8.2 c -0.1,0 -0.1,0 -0.2,0 C 11.8,7.9 11.5,7.8 11.1,7.8 11,7.8 11,7.8 10.9,7.8 10.6,7.4 10.1,7.2 9.6,7.2 c -0.7,0 -1.3,0.4 -1.5,1 -0.6,0.1 -1,0.7 -1,1.3 0,0.7 0.6,1.3 1.3,1.3 0,0 0,0 0,0 0.3,0.5 0.9,0.8 1.7,0.8 0.8,0 1.5,-0.4 1.7,-0.8 0.1,0 0.2,0 0.3,0 0.7,0 1.3,-0.6 1.3,-1.3 C 13.5,8.8 13,8.2 12.2,8.2 Z"
             id="path4"
             inkscape:connector-curvature="0"
             style="fill:#41beee" /><path
             class="st22"
             d="m 8.1,12.3 c 0,0.2 0.1,0.3 0.3,0.3 0.2,0 0.3,-0.1 0.3,-0.3 0,-0.1 -0.1,-0.3 -0.2,-0.5 0,-0.1 -0.1,-0.1 -0.2,0 -0.1,0.2 -0.2,0.4 -0.2,0.5 z"
             id="path6"
             inkscape:connector-curvature="0"
             style="fill:#41beee" /><path
             class="st22"
             d="m 11.4,12.5 c 0,0.2 0.1,0.3 0.3,0.3 0.2,0 0.3,-0.1 0.3,-0.3 0,-0.1 -0.1,-0.3 -0.2,-0.5 0,-0.1 -0.1,-0.1 -0.2,0 -0.1,0.2 -0.2,0.4 -0.2,0.5 z"
             id="path8"
             inkscape:connector-curvature="0"
             style="fill:#41beee" /><path
             class="st22"
             d="m 8.8,13.4 c 0,0.1 0.1,0.2 0.2,0.2 0.1,0 0.2,-0.1 0.2,-0.2 0,-0.1 -0.1,-0.2 -0.1,-0.3 0,-0.1 -0.1,-0.1 -0.2,0 0,0.1 -0.1,0.3 -0.1,0.3 z"
             id="path10"
             inkscape:connector-curvature="0"
             style="fill:#41beee" /><path
             class="st22"
             d="m 10.7,13.4 c 0,0.1 0.1,0.2 0.2,0.2 0.1,0 0.2,-0.1 0.2,-0.2 0,-0.1 -0.1,-0.2 -0.1,-0.3 0,-0.1 -0.1,-0.1 -0.2,0 0,0.1 -0.1,0.3 -0.1,0.3 z"
             id="path12"
             inkscape:connector-curvature="0"
             style="fill:#41beee" /><path
             class="st22"
             d="m 9.7,12.8 c 0,0.2 0.1,0.3 0.3,0.3 0.2,0 0.3,-0.1 0.3,-0.3 0,-0.1 -0.1,-0.3 -0.2,-0.5 0,-0.1 -0.1,-0.1 -0.2,0 -0.1,0.2 -0.2,0.4 -0.2,0.5 z"
             id="path14"
             inkscape:connector-curvature="0"
             style="fill:#41beee" /></g></g></g></g></svg>