<?xml version="1.0" encoding="UTF-8" standalone="no"?>
<!-- Generator: Adobe Illustrator 19.1.0, SVG Export Plug-In . SVG Version: 6.00 Build 0)  -->

<svg
   xmlns:dc="http://purl.org/dc/elements/1.1/"
   xmlns:cc="http://creativecommons.org/ns#"
   xmlns:rdf="http://www.w3.org/1999/02/22-rdf-syntax-ns#"
   xmlns:svg="http://www.w3.org/2000/svg"
   xmlns="http://www.w3.org/2000/svg"
   xmlns:sodipodi="http://sodipodi.sourceforge.net/DTD/sodipodi-0.dtd"
   xmlns:inkscape="http://www.inkscape.org/namespaces/inkscape"
   version="1.1"
   id="Capa_1"
   x="0px"
   y="0px"
   viewBox="246 -246 474.10001 39"
   xml:space="preserve"
   sodipodi:docname="wave.svg"
   width="474.10001"
   height="39"
   inkscape:version="0.92.0 r"><metadata
     id="metadata27"><rdf:RDF><cc:Work
         rdf:about=""><dc:format>image/svg+xml</dc:format><dc:type
           rdf:resource="http://purl.org/dc/dcmitype/StillImage" /></cc:Work></rdf:RDF></metadata><defs
     id="defs25" /><sodipodi:namedview
     pagecolor="#ffffff"
     bordercolor="#666666"
     borderopacity="1"
     objecttolerance="10"
     gridtolerance="10"
     guidetolerance="10"
     inkscape:pageopacity="0"
     inkscape:pageshadow="2"
     inkscape:window-width="751"
     inkscape:window-height="480"
     id="namedview23"
     showgrid="false"
     inkscape:zoom="0.4609375"
     inkscape:cx="234.2"
     inkscape:cy="-29.2"
     inkscape:window-x="0"
     inkscape:window-y="27"
     inkscape:window-maximized="0"
     inkscape:current-layer="Capa_1" /><style
     type="text/css"
     id="style2">
	.st0{fill:#ee705c;}
</style><g
     id="g8"
     transform="translate(-21.8,-187.8)"><g
       id="g6"><path
         class="st0"
         d="m 272.2,-19.2 c 8.5,0 16.2,-1.9 23.1,-5.9 6.9,-4 12.2,-9.4 16,-16.5 3.8,7 9.1,12.5 15.9,16.5 6.8,4 14.4,5.9 22.9,5.9 h 0.2 c 8.5,0 16,-1.9 22.9,-5.9 6.9,-4 12.2,-9.4 15.9,-16.5 3.8,7 9.2,12.5 16,16.5 6.9,3.9 14.5,5.9 23,5.9 2.5,0 4.4,-2 4.4,-4.5 0,-2.5 -1.9,-4.4 -4.4,-4.4 -8.5,0 -16,-2.4 -22.3,-7.3 -6.3,-4.9 -10.4,-11.4 -12.3,-19.5 l -0.2,-0.2 c 0,-0.2 -0.1,-0.3 -0.2,-0.5 0,-0.1 -0.2,-0.2 -0.2,-0.3 0,-0.1 -0.1,-0.2 -0.2,-0.3 l -0.3,-0.3 c 0,-0.2 -0.1,-0.3 -0.3,-0.3 0,-0.1 -0.1,-0.2 -0.2,-0.3 l -0.5,-0.3 -0.3,-0.2 c -0.1,0 -0.2,-0.2 -0.3,-0.2 -0.1,-0.1 -0.2,-0.2 -0.5,-0.2 l -0.2,-0.2 h -0.1 -0.6 -0.4 -0.3 -0.5 -0.2 l -0.2,0.2 c -0.2,0 -0.4,0.1 -0.5,0.2 -0.1,0 -0.2,0.1 -0.3,0.2 -0.1,0 -0.4,0.2 -0.5,0.2 0,0.1 -0.1,0.2 -0.2,0.2 l -0.2,0.2 -0.3,0.3 -0.2,0.3 -0.3,0.3 -0.2,0.3 c -0.1,0.1 -0.2,0.2 -0.2,0.3 -0.1,0.1 -0.2,0.2 -0.2,0.5 -0.1,0 -0.2,0.1 -0.2,0.2 -2,8.2 -6.1,14.7 -12.3,19.5 -6.2,4.8 -13.6,7.3 -22.2,7.3 -8.6,0 -16.1,-2.4 -22.3,-7.3 -6.2,-4.8 -10.3,-11.4 -12.3,-19.5 V -55 c -0.1,-0.1 -0.2,-0.2 -0.2,-0.5 -0.1,-0.1 -0.2,-0.2 -0.2,-0.3 l -0.3,-0.3 c 0,-0.1 -0.1,-0.2 -0.2,-0.3 l -0.3,-0.3 -0.3,-0.3 -0.4,-0.3 c -0.1,0 -0.2,-0.1 -0.3,-0.2 -0.1,0 -0.4,-0.2 -0.5,-0.2 -0.1,-0.1 -0.2,-0.2 -0.3,-0.2 -0.1,0 -0.2,-0.2 -0.3,-0.2 h -0.2 -0.5 -0.3 -0.5 -0.6 v 0 l -0.2,0.2 c -0.2,0 -0.4,0.1 -0.5,0.2 l -0.3,0.2 c -0.1,0 -0.2,0.2 -0.3,0.2 l -0.3,0.3 c -0.2,0 -0.3,0.1 -0.3,0.3 l -0.3,0.3 -0.3,0.3 -0.2,0.3 c 0,0.2 -0.4,0.5 -0.4,0.8 v 0.2 c -2,8.2 -6.1,14.7 -12.4,19.5 -6.2,4.8 -13.6,7.3 -22.3,7.3 -2.5,0 -4.4,1.9 -4.4,4.4 0,2.3 1.9,4.4 4.4,4.4 z"
         id="path4"
         inkscape:connector-curvature="0"
         style="fill:#ee705c" /></g></g><g
     id="g14"
     transform="translate(-21.8,-187.8)"><g
       id="g12"><path
         class="st0"
         d="m 425,-19.2 c 8.5,0 16.2,-1.9 23.1,-5.9 6.9,-4 12.2,-9.4 16,-16.5 3.8,7 9.1,12.5 15.9,16.5 6.8,4 14.4,5.9 22.9,5.9 h 0.2 c 8.5,0 16,-1.9 22.9,-5.9 6.9,-4 12.2,-9.4 15.9,-16.5 3.8,7 9.2,12.5 16,16.5 6.9,3.9 14.5,5.9 23,5.9 2.5,0 4.4,-2 4.4,-4.5 0,-2.5 -1.9,-4.4 -4.4,-4.4 -8.5,0 -16,-2.4 -22.3,-7.3 -6.3,-4.9 -10.4,-11.4 -12.3,-19.5 l -0.2,-0.2 c 0,-0.2 -0.1,-0.3 -0.2,-0.5 0,-0.1 -0.2,-0.2 -0.2,-0.3 0,-0.1 -0.1,-0.2 -0.2,-0.3 l -0.3,-0.3 c 0,-0.2 -0.1,-0.3 -0.3,-0.3 0,-0.1 -0.1,-0.2 -0.2,-0.3 l -0.5,-0.3 -0.3,-0.2 c -0.1,0 -0.2,-0.2 -0.3,-0.2 -0.1,-0.1 -0.2,-0.2 -0.5,-0.2 l -0.2,-0.2 h -0.2 -0.6 -0.5 -0.3 -0.5 -0.2 l -0.2,0.2 c -0.2,0 -0.4,0.1 -0.5,0.2 -0.1,0 -0.2,0.1 -0.3,0.2 -0.1,0 -0.4,0.2 -0.5,0.2 0,0.1 -0.1,0.2 -0.2,0.2 l -0.2,0.2 -0.3,0.3 -0.2,0.3 -0.3,0.3 -0.2,0.3 c -0.1,0.1 -0.2,0.2 -0.2,0.3 -0.1,0.1 -0.2,0.2 -0.2,0.5 -0.1,0 -0.2,0.1 -0.2,0.2 -2,8.2 -6.1,14.7 -12.3,19.5 -6.2,4.8 -13.6,7.3 -22.2,7.3 -8.6,0 -16.1,-2.4 -22.3,-7.3 C 474.1,-40.1 470,-46.7 468,-54.8 V -55 c -0.1,-0.1 -0.2,-0.2 -0.2,-0.5 -0.1,-0.1 -0.2,-0.2 -0.2,-0.3 l -0.3,-0.3 c 0,-0.1 -0.1,-0.2 -0.2,-0.3 l -0.3,-0.3 -0.3,-0.3 -0.4,-0.3 c -0.1,0 -0.2,-0.1 -0.3,-0.2 -0.1,0 -0.4,-0.2 -0.5,-0.2 -0.1,-0.1 -0.2,-0.2 -0.3,-0.2 -0.1,0 -0.2,-0.2 -0.3,-0.2 h -0.2 -0.5 v 0 h -0.5 -0.5 -0.2 l -0.2,0.2 c -0.2,0 -0.4,0.1 -0.5,0.2 l -0.3,0.2 c -0.1,0 -0.2,0.2 -0.3,0.2 l -0.3,0.3 c -0.2,0 -0.3,0.1 -0.3,0.3 l -0.3,0.3 -0.3,0.3 -0.2,0.3 c 0,0.2 -0.4,0.5 -0.4,0.8 v 0.2 c -2,8.2 -6.1,14.7 -12.4,19.5 -6.2,4.8 -13.6,7.3 -22.3,7.3 -2.5,0 -4.4,1.9 -4.4,4.4 0,2.3 1.9,4.4 4.4,4.4 z"
         id="path10"
         inkscape:connector-curvature="0"
         style="fill:#ee705c" /></g></g><g
     id="g20"
     transform="translate(-21.8,-187.8)"><g
       id="g18"><path
         class="st0"
         d="m 581.6,-19.2 c 8.5,0 16.2,-1.9 23.1,-5.9 6.9,-4 12.2,-9.4 16,-16.5 3.8,7 9.1,12.5 15.9,16.5 6.8,4 14.4,5.9 22.9,5.9 h 0.2 c 8.5,0 16,-1.9 22.9,-5.9 6.9,-4 12.2,-9.4 15.9,-16.5 3.8,7 9.2,12.5 16,16.5 6.9,3.9 14.5,5.9 23,5.9 2.5,0 4.4,-2 4.4,-4.5 0,-2.5 -1.9,-4.4 -4.4,-4.4 -8.5,0 -16,-2.4 -22.3,-7.3 -6.3,-4.9 -10.4,-11.4 -12.3,-19.5 l -0.2,-0.2 c 0,-0.2 -0.1,-0.3 -0.2,-0.5 0,-0.1 -0.2,-0.2 -0.2,-0.3 0,-0.1 -0.1,-0.2 -0.2,-0.3 l -0.3,-0.3 c 0,-0.2 -0.1,-0.3 -0.3,-0.3 0,-0.1 -0.1,-0.2 -0.2,-0.3 l -0.5,-0.3 -0.3,-0.2 c -0.1,0 -0.2,-0.2 -0.3,-0.2 -0.1,-0.1 -0.2,-0.2 -0.5,-0.2 l -0.2,-0.2 h -0.2 -0.6 -0.5 -0.2 -0.5 -0.2 l -0.2,0.2 c -0.2,0 -0.4,0.1 -0.5,0.2 -0.1,0 -0.2,0.1 -0.3,0.2 -0.1,0 -0.4,0.2 -0.5,0.2 0,0.1 -0.1,0.2 -0.2,0.2 l -0.2,0.2 -0.3,0.3 -0.2,0.3 -0.3,0.3 -0.2,0.3 c -0.1,0.1 -0.2,0.2 -0.2,0.3 -0.1,0.1 -0.2,0.2 -0.2,0.5 -0.1,0 -0.2,0.1 -0.2,0.2 -2,8.2 -6.1,14.7 -12.3,19.5 -6.2,4.8 -13.6,7.3 -22.2,7.3 -8.6,0 -16.1,-2.4 -22.3,-7.3 -6.2,-4.8 -10.3,-11.4 -12.3,-19.5 V -55 c -0.1,-0.1 -0.2,-0.2 -0.2,-0.5 -0.1,-0.1 -0.2,-0.2 -0.2,-0.3 l -0.3,-0.3 c 0,-0.1 -0.1,-0.2 -0.2,-0.3 l -0.3,-0.3 -0.3,-0.3 -0.4,-0.3 c -0.1,0 -0.2,-0.1 -0.3,-0.2 -0.1,0 -0.4,-0.2 -0.5,-0.2 -0.1,-0.1 -0.2,-0.2 -0.3,-0.2 -0.1,0 -0.2,-0.2 -0.3,-0.2 h -0.2 -0.5 -0.3 -0.5 -0.6 -0.2 l -0.2,0.2 c -0.2,0 -0.4,0.1 -0.5,0.2 l -0.3,0.2 c -0.1,0 -0.2,0.2 -0.3,0.2 l -0.3,0.3 c -0.2,0 -0.3,0.1 -0.3,0.3 l -0.3,0.3 -0.3,0.3 -0.2,0.3 c 0,0.2 -0.4,0.5 -0.4,0.8 v 0.2 c -2,8.2 -6.1,14.7 -12.4,19.5 -6.2,4.8 -13.6,7.3 -22.3,7.3 -2.5,0 -4.4,1.9 -4.4,4.4 0.3,2.3 2.2,4.4 4.7,4.4 z"
         id="path16"
         inkscape:connector-curvature="0"
         style="fill:#ee705c" /></g></g></svg>
