<?xml version="1.0" encoding="UTF-8" standalone="no"?>
<!-- Generator: Adobe Illustrator 19.1.0, SVG Export Plug-In . SVG Version: 6.00 Build 0)  -->

<svg
   xmlns:dc="http://purl.org/dc/elements/1.1/"
   xmlns:cc="http://creativecommons.org/ns#"
   xmlns:rdf="http://www.w3.org/1999/02/22-rdf-syntax-ns#"
   xmlns:svg="http://www.w3.org/2000/svg"
   xmlns="http://www.w3.org/2000/svg"
   xmlns:sodipodi="http://sodipodi.sourceforge.net/DTD/sodipodi-0.dtd"
   xmlns:inkscape="http://www.inkscape.org/namespaces/inkscape"
   version="1.1"
   id="Capa_1"
   x="0px"
   y="0px"
   viewBox="246 -246 191 45.5"
   xml:space="preserve"
   sodipodi:docname="wave.svg"
   width="191"
   height="45.5"
   inkscape:version="0.92pre3 r"><metadata
     id="metadata15"><rdf:RDF><cc:Work
         rdf:about=""><dc:format>image/svg+xml</dc:format><dc:type
           rdf:resource="http://purl.org/dc/dcmitype/StillImage" /></cc:Work></rdf:RDF></metadata><defs
     id="defs13" /><sodipodi:namedview
     pagecolor="#ffffff"
     bordercolor="#666666"
     borderopacity="1"
     objecttolerance="10"
     gridtolerance="10"
     guidetolerance="10"
     inkscape:pageopacity="0"
     inkscape:pageshadow="2"
     inkscape:window-width="751"
     inkscape:window-height="508"
     id="namedview11"
     showgrid="false"
     inkscape:zoom="0.4609375"
     inkscape:cx="95.7"
     inkscape:cy="-10.6"
     inkscape:window-x="285"
     inkscape:window-y="329"
     inkscape:window-maximized="0"
     inkscape:current-layer="Capa_1" /><style
     type="text/css"
     id="style2">
	.st0{fill:#ee705c;}
</style><g
     id="g8"
     transform="translate(-160.3,-199.9)"><g
       id="g6"><path
         class="st0"
         d="m 411.8,-0.6 c 9.9,0 18.8,-2.3 26.7,-6.8 7.9,-4.6 14.1,-10.9 18.5,-19.1 4.4,8.1 10.5,14.5 18.4,19.1 7.9,4.6 16.7,6.8 26.5,6.8 h 0.2 c 9.8,0 18.6,-2.3 26.5,-6.8 7.9,-4.6 14.1,-10.9 18.4,-19.1 4.4,8.1 10.6,14.5 18.6,19.1 7.9,4.6 16.8,6.8 26.6,6.8 2.9,0 5.1,-2.3 5.1,-5.2 0,-2.9 -2.2,-5.1 -5.1,-5.1 -9.9,0 -18.5,-2.8 -25.8,-8.4 -7.3,-5.6 -12,-13.2 -14.2,-22.6 l -0.2,-0.2 c 0,-0.2 -0.1,-0.4 -0.3,-0.6 0,-0.1 -0.2,-0.3 -0.2,-0.4 0,-0.1 -0.1,-0.3 -0.2,-0.4 l -0.4,-0.4 c 0,-0.3 -0.1,-0.4 -0.4,-0.4 0,-0.1 -0.1,-0.3 -0.2,-0.4 l -0.6,-0.4 -0.4,-0.3 c -0.1,0 -0.3,-0.2 -0.4,-0.2 -0.1,-0.1 -0.3,-0.2 -0.6,-0.2 l -0.2,-0.2 h -0.2 -0.7 -0.2 -0.4 -0.6 -0.2 l -0.2,0.2 c -0.3,0 -0.5,0.1 -0.6,0.2 -0.1,0 -0.3,0.1 -0.4,0.2 -0.1,0 -0.5,0.3 -0.6,0.3 0,0.1 -0.1,0.2 -0.2,0.2 l -0.3,0.2 -0.4,0.4 -0.2,0.4 -0.4,0.4 -0.2,0.4 c -0.1,0.1 -0.2,0.3 -0.2,0.4 -0.1,0.1 -0.2,0.3 -0.2,0.6 -0.1,0 -0.2,0.1 -0.2,0.2 -2.3,9.4 -7.1,17 -14.3,22.6 -7.2,5.6 -15.8,8.4 -25.7,8.4 -10,0 -18.6,-2.8 -25.9,-8.4 C 469,-25 464.3,-32.6 462,-42 v -0.2 c -0.1,-0.1 -0.2,-0.3 -0.2,-0.6 -0.1,-0.1 -0.2,-0.3 -0.2,-0.4 l -0.4,-0.4 c 0,-0.1 -0.1,-0.3 -0.2,-0.4 l -0.4,-0.4 -0.4,-0.4 -0.5,-0.4 c -0.1,0 -0.3,-0.1 -0.4,-0.3 -0.1,0 -0.5,-0.2 -0.6,-0.2 -0.1,-0.1 -0.3,-0.2 -0.4,-0.2 -0.1,0 -0.3,-0.2 -0.4,-0.2 h -0.2 -0.6 -0.1 -0.6 -0.7 -0.2 l -0.2,0.2 c -0.3,0 -0.5,0.1 -0.6,0.2 l -0.4,0.2 c -0.1,0 -0.3,0.3 -0.4,0.3 l -0.4,0.4 c -0.3,0 -0.4,0.1 -0.4,0.4 l -0.4,0.4 -0.4,0.4 -0.2,0.4 c 0,0.2 -0.5,0.6 -0.5,0.9 v 0.2 c -2.3,9.4 -7.1,17 -14.4,22.6 -7.2,5.6 -15.8,8.4 -25.8,8.4 -2.9,0 -5.1,2.2 -5.1,5.1 0.4,3 2.7,5.4 5.5,5.4 z"
         id="path4"
         inkscape:connector-curvature="0"
         style="fill:#ee705c" /></g></g></svg>
